<?xml version="1.0" encoding="UTF-8" standalone="no"?>
<!DOCTYPE svg PUBLIC "-//W3C//DTD SVG 1.1//EN"
 "http://www.w3.org/Graphics/SVG/1.1/DTD/svg11.dtd">
<!-- Generated by graphviz version 7.1.0 (0)
 -->
<!-- Title: src/bst/bst.h Pages: 1 -->
<svg width="144pt" height="137pt"
 viewBox="0.00 0.00 144.21 137.00" xmlns="http://www.w3.org/2000/svg" xmlns:xlink="http://www.w3.org/1999/xlink">
<g id="graph0" class="graph" transform="scale(1 1) rotate(0) translate(4 133)">
<title>src/bst/bst.h</title>
<!-- Node1 -->
<g id="node1" class="node">
<title>Node1</title>
<g id="a_node1"><a xlink:title=" ">
<polygon fill="#999999" stroke="#666666" points="103.61,-129 32.61,-129 32.61,-110 103.61,-110 103.61,-129"/>
<text text-anchor="middle" x="68.11" y="-117" font-family="Helvetica,sans-Serif" font-size="10.00">src/bst/bst.h</text>
</a>
</g>
</g>
<!-- Node2 -->
<g id="node2" class="node">
<title>Node2</title>
<g id="a_node2"><a xlink:title=" ">
<polygon fill="#e0e0e0" stroke="#999999" points="56.11,-19 4.11,-19 4.11,0 56.11,0 56.11,-19"/>
<text text-anchor="middle" x="30.11" y="-7" font-family="Helvetica,sans-Serif" font-size="10.00">stddef.h</text>
</a>
</g>
</g>
<!-- Node1&#45;&gt;Node2 -->
<g id="edge1" class="edge">
<title>Node1&#45;&gt;Node2</title>
<path fill="none" stroke="#63b8ff" d="M45.34,-109.65C30.37,-102.49 11.97,-90.82 3.11,-74 -4.82,-58.97 4.33,-41.1 14.06,-28.15"/>
<polygon fill="#63b8ff" stroke="#63b8ff" points="16.71,-30.44 20.38,-20.51 11.31,-25.98 16.71,-30.44"/>
</g>
<!-- Node3 -->
<g id="node3" class="node">
<title>Node3</title>
<g id="a_node3"><a xlink:title=" ">
<polygon fill="#e0e0e0" stroke="#999999" points="130.61,-19 81.61,-19 81.61,0 130.61,0 130.61,-19"/>
<text text-anchor="middle" x="106.11" y="-7" font-family="Helvetica,sans-Serif" font-size="10.00">stdint.h</text>
</a>
</g>
</g>
<!-- Node1&#45;&gt;Node3 -->
<g id="edge2" class="edge">
<title>Node1&#45;&gt;Node3</title>
<path fill="none" stroke="#63b8ff" d="M90.87,-109.65C105.84,-102.49 124.24,-90.82 133.11,-74 141.03,-58.97 131.88,-41.1 122.15,-28.15"/>
<polygon fill="#63b8ff" stroke="#63b8ff" points="124.9,-25.98 115.83,-20.51 119.5,-30.44 124.9,-25.98"/>
</g>
<!-- Node4 -->
<g id="node4" class="node">
<title>Node4</title>
<g id="a_node4"><a xlink:href="memory_8h.html" target="_top" xlink:title=" ">
<polygon fill="white" stroke="#666666" points="124.11,-74 12.11,-74 12.11,-55 124.11,-55 124.11,-74"/>
<text text-anchor="middle" x="68.11" y="-62" font-family="Helvetica,sans-Serif" font-size="10.00">header&#45;only/memory.h</text>
</a>
</g>
</g>
<!-- Node1&#45;&gt;Node4 -->
<g id="edge3" class="edge">
<title>Node1&#45;&gt;Node4</title>
<path fill="none" stroke="#63b8ff" d="M68.11,-109.75C68.11,-103.27 68.11,-94.16 68.11,-85.9"/>
<polygon fill="#63b8ff" stroke="#63b8ff" points="71.61,-85.96 68.11,-75.96 64.61,-85.96 71.61,-85.96"/>
</g>
<!-- Node4&#45;&gt;Node2 -->
<g id="edge4" class="edge">
<title>Node4&#45;&gt;Node2</title>
<path fill="none" stroke="#63b8ff" d="M61.83,-54.75C56.75,-47.66 49.41,-37.42 43.07,-28.59"/>
<polygon fill="#63b8ff" stroke="#63b8ff" points="46.07,-26.76 37.4,-20.67 40.38,-30.84 46.07,-26.76"/>
</g>
<!-- Node4&#45;&gt;Node3 -->
<g id="edge5" class="edge">
<title>Node4&#45;&gt;Node3</title>
<path fill="none" stroke="#63b8ff" d="M74.38,-54.75C79.47,-47.66 86.8,-37.42 93.14,-28.59"/>
<polygon fill="#63b8ff" stroke="#63b8ff" points="95.83,-30.84 98.81,-20.67 90.14,-26.76 95.83,-30.84"/>
</g>
</g>
</svg>
