<?xml version="1.0" encoding="UTF-8" standalone="no"?>
<!DOCTYPE svg PUBLIC "-//W3C//DTD SVG 1.1//EN"
 "http://www.w3.org/Graphics/SVG/1.1/DTD/svg11.dtd">
<!-- Generated by graphviz version 7.1.0 (0)
 -->
<!-- Title: src/header&#45;only/decimal.h Pages: 1 -->
<svg width="314pt" height="137pt"
 viewBox="0.00 0.00 314.00 137.00" xmlns="http://www.w3.org/2000/svg" xmlns:xlink="http://www.w3.org/1999/xlink">
<g id="graph0" class="graph" transform="scale(1 1) rotate(0) translate(4 133)">
<title>src/header&#45;only/decimal.h</title>
<!-- Node1 -->
<g id="node1" class="node">
<title>Node1</title>
<g id="a_node1"><a xlink:title=" ">
<polygon fill="#999999" stroke="#666666" points="204,-129 76,-129 76,-110 204,-110 204,-129"/>
<text text-anchor="middle" x="140" y="-117" font-family="Helvetica,sans-Serif" font-size="10.00">src/header&#45;only/decimal.h</text>
</a>
</g>
</g>
<!-- Node2 -->
<g id="node2" class="node">
<title>Node2</title>
<g id="a_node2"><a xlink:href="timing_8h.html" target="_top" xlink:title=" ">
<polygon fill="white" stroke="#666666" points="200.5,-74 79.5,-74 79.5,-55 200.5,-55 200.5,-74"/>
<text text-anchor="middle" x="140" y="-62" font-family="Helvetica,sans-Serif" font-size="10.00">src/header&#45;only/timing.h</text>
</a>
</g>
</g>
<!-- Node1&#45;&gt;Node2 -->
<g id="edge1" class="edge">
<title>Node1&#45;&gt;Node2</title>
<path fill="none" stroke="#63b8ff" d="M140,-98.35C140,-90.1 140,-80.97 140,-74.44"/>
<polygon fill="#63b8ff" stroke="#63b8ff" points="136.5,-98.23 140,-108.23 143.5,-98.23 136.5,-98.23"/>
</g>
<!-- Node3 -->
<g id="node3" class="node">
<title>Node3</title>
<g id="a_node3"><a xlink:href="test__bst_8c.html" target="_top" xlink:title=" ">
<polygon fill="white" stroke="#666666" points="80,-19 0,-19 0,0 80,0 80,-19"/>
<text text-anchor="middle" x="40" y="-7" font-family="Helvetica,sans-Serif" font-size="10.00">test/test_bst.c</text>
</a>
</g>
</g>
<!-- Node1&#45;&gt;Node3 -->
<g id="edge5" class="edge">
<title>Node1&#45;&gt;Node3</title>
<path fill="none" stroke="#63b8ff" d="M110.63,-104.29C97.26,-96.72 82.01,-86.4 71,-74 56.18,-57.3 46.76,-32.25 42.56,-19.16"/>
<polygon fill="#63b8ff" stroke="#63b8ff" points="108.58,-107.16 119.05,-108.82 111.9,-101 108.58,-107.16"/>
</g>
<!-- Node4 -->
<g id="node4" class="node">
<title>Node4</title>
<g id="a_node4"><a xlink:href="test__hashmap_8c.html" target="_top" xlink:title=" ">
<polygon fill="white" stroke="#666666" points="306,-19 200,-19 200,0 306,0 306,-19"/>
<text text-anchor="middle" x="253" y="-7" font-family="Helvetica,sans-Serif" font-size="10.00">test/test_hashmap.c</text>
</a>
</g>
</g>
<!-- Node1&#45;&gt;Node4 -->
<g id="edge6" class="edge">
<title>Node1&#45;&gt;Node4</title>
<path fill="none" stroke="#63b8ff" d="M168.22,-104.11C181.79,-96.35 197.74,-85.91 210,-74 227.38,-57.12 241.78,-32.14 248.66,-19.12"/>
<polygon fill="#63b8ff" stroke="#63b8ff" points="166.8,-100.9 159.72,-108.78 170.17,-107.03 166.8,-100.9"/>
</g>
<!-- Node2&#45;&gt;Node3 -->
<g id="edge2" class="edge">
<title>Node2&#45;&gt;Node3</title>
<path fill="none" stroke="#63b8ff" d="M112.89,-49.13C94.96,-39.63 72.02,-27.47 56.71,-19.36"/>
<polygon fill="#63b8ff" stroke="#63b8ff" points="111.22,-52.21 121.7,-53.8 114.5,-46.02 111.22,-52.21"/>
</g>
<!-- Node2&#45;&gt;Node4 -->
<g id="edge3" class="edge">
<title>Node2&#45;&gt;Node4</title>
<path fill="none" stroke="#63b8ff" d="M169.49,-49.67C189.92,-40.09 216.49,-27.62 234.11,-19.36"/>
<polygon fill="#63b8ff" stroke="#63b8ff" points="168.11,-46.45 160.54,-53.87 171.08,-52.79 168.11,-46.45"/>
</g>
<!-- Node5 -->
<g id="node5" class="node">
<title>Node5</title>
<g id="a_node5"><a xlink:href="test__sort_8c.html" target="_top" xlink:title=" ">
<polygon fill="white" stroke="#666666" points="181.5,-19 98.5,-19 98.5,0 181.5,0 181.5,-19"/>
<text text-anchor="middle" x="140" y="-7" font-family="Helvetica,sans-Serif" font-size="10.00">test/test_sort.c</text>
</a>
</g>
</g>
<!-- Node2&#45;&gt;Node5 -->
<g id="edge4" class="edge">
<title>Node2&#45;&gt;Node5</title>
<path fill="none" stroke="#63b8ff" d="M140,-43.35C140,-35.1 140,-25.97 140,-19.44"/>
<polygon fill="#63b8ff" stroke="#63b8ff" points="136.5,-43.23 140,-53.23 143.5,-43.23 136.5,-43.23"/>
</g>
</g>
</svg>
