<?xml version="1.0" encoding="UTF-8" standalone="no"?>
<!DOCTYPE svg PUBLIC "-//W3C//DTD SVG 1.1//EN"
 "http://www.w3.org/Graphics/SVG/1.1/DTD/svg11.dtd">
<!-- Generated by graphviz version 7.1.0 (0)
 -->
<!-- Title: src/header&#45;only/decimal.h Pages: 1 -->
<svg width="424pt" height="137pt"
 viewBox="0.00 0.00 424.00 137.00" xmlns="http://www.w3.org/2000/svg" xmlns:xlink="http://www.w3.org/1999/xlink">
<g id="graph0" class="graph" transform="scale(1 1) rotate(0) translate(4 133)">
<title>src/header&#45;only/decimal.h</title>
<!-- Node1 -->
<g id="node1" class="node">
<title>Node1</title>
<g id="a_node1"><a xlink:title=" ">
<polygon fill="#999999" stroke="#666666" points="196,-129 68,-129 68,-110 196,-110 196,-129"/>
<text text-anchor="middle" x="132" y="-117" font-family="Helvetica,sans-Serif" font-size="10.00">src/header&#45;only/decimal.h</text>
</a>
</g>
</g>
<!-- Node2 -->
<g id="node2" class="node">
<title>Node2</title>
<g id="a_node2"><a xlink:href="timing_8h.html" target="_top" xlink:title=" ">
<polygon fill="white" stroke="#666666" points="281.5,-74 160.5,-74 160.5,-55 281.5,-55 281.5,-74"/>
<text text-anchor="middle" x="221" y="-62" font-family="Helvetica,sans-Serif" font-size="10.00">src/header&#45;only/timing.h</text>
</a>
</g>
</g>
<!-- Node1&#45;&gt;Node2 -->
<g id="edge1" class="edge">
<title>Node1&#45;&gt;Node2</title>
<path fill="none" stroke="#63b8ff" d="M156.8,-103.73C172.66,-94.29 192.69,-82.36 206.13,-74.36"/>
<polygon fill="#63b8ff" stroke="#63b8ff" points="155.2,-100.61 148.4,-108.73 158.78,-106.63 155.2,-100.61"/>
</g>
<!-- Node3 -->
<g id="node3" class="node">
<title>Node3</title>
<g id="a_node3"><a xlink:href="test__bst_8c.html" target="_top" xlink:title=" ">
<polygon fill="white" stroke="#666666" points="80,-19 0,-19 0,0 80,0 80,-19"/>
<text text-anchor="middle" x="40" y="-7" font-family="Helvetica,sans-Serif" font-size="10.00">test/test_bst.c</text>
</a>
</g>
</g>
<!-- Node1&#45;&gt;Node3 -->
<g id="edge6" class="edge">
<title>Node1&#45;&gt;Node3</title>
<path fill="none" stroke="#63b8ff" d="M117.19,-101.12C97.36,-77.83 62.88,-37.36 47.63,-19.46"/>
<polygon fill="#63b8ff" stroke="#63b8ff" points="114.34,-103.17 123.49,-108.51 119.67,-98.63 114.34,-103.17"/>
</g>
<!-- Node4 -->
<g id="node4" class="node">
<title>Node4</title>
<g id="a_node4"><a xlink:href="test__hashmap_8c.html" target="_top" xlink:title=" ">
<polygon fill="white" stroke="#666666" points="204,-19 98,-19 98,0 204,0 204,-19"/>
<text text-anchor="middle" x="151" y="-7" font-family="Helvetica,sans-Serif" font-size="10.00">test/test_hashmap.c</text>
</a>
</g>
</g>
<!-- Node1&#45;&gt;Node4 -->
<g id="edge7" class="edge">
<title>Node1&#45;&gt;Node4</title>
<path fill="none" stroke="#63b8ff" d="M135.51,-98.57C139.66,-74.98 146.39,-36.73 149.42,-19.46"/>
<polygon fill="#63b8ff" stroke="#63b8ff" points="132.1,-97.72 133.82,-108.17 139,-98.93 132.1,-97.72"/>
</g>
<!-- Node2&#45;&gt;Node3 -->
<g id="edge2" class="edge">
<title>Node2&#45;&gt;Node3</title>
<path fill="none" stroke="#63b8ff" d="M179.56,-51.36C146.34,-41.64 100.49,-28.21 70.55,-19.45"/>
<polygon fill="#63b8ff" stroke="#63b8ff" points="178.26,-54.63 188.84,-54.08 180.23,-47.91 178.26,-54.63"/>
</g>
<!-- Node2&#45;&gt;Node4 -->
<g id="edge3" class="edge">
<title>Node2&#45;&gt;Node4</title>
<path fill="none" stroke="#63b8ff" d="M200.05,-47.64C187.83,-38.39 172.86,-27.05 162.7,-19.36"/>
<polygon fill="#63b8ff" stroke="#63b8ff" points="197.83,-50.35 207.92,-53.6 202.06,-44.77 197.83,-50.35"/>
</g>
<!-- Node5 -->
<g id="node5" class="node">
<title>Node5</title>
<g id="a_node5"><a xlink:href="test__sort_8c.html" target="_top" xlink:title=" ">
<polygon fill="white" stroke="#666666" points="305.5,-19 222.5,-19 222.5,0 305.5,0 305.5,-19"/>
<text text-anchor="middle" x="264" y="-7" font-family="Helvetica,sans-Serif" font-size="10.00">test/test_sort.c</text>
</a>
</g>
</g>
<!-- Node2&#45;&gt;Node5 -->
<g id="edge4" class="edge">
<title>Node2&#45;&gt;Node5</title>
<path fill="none" stroke="#63b8ff" d="M235.25,-45.93C242.45,-37.06 250.88,-26.67 256.75,-19.44"/>
<polygon fill="#63b8ff" stroke="#63b8ff" points="232.64,-43.6 229.05,-53.57 238.07,-48.01 232.64,-43.6"/>
</g>
<!-- Node6 -->
<g id="node6" class="node">
<title>Node6</title>
<g id="a_node6"><a xlink:href="test__vector_8c.html" target="_top" xlink:title=" ">
<polygon fill="white" stroke="#666666" points="416,-19 324,-19 324,0 416,0 416,-19"/>
<text text-anchor="middle" x="370" y="-7" font-family="Helvetica,sans-Serif" font-size="10.00">test/test_vector.c</text>
</a>
</g>
</g>
<!-- Node2&#45;&gt;Node6 -->
<g id="edge5" class="edge">
<title>Node2&#45;&gt;Node6</title>
<path fill="none" stroke="#63b8ff" d="M256.95,-50.71C284.22,-41.01 321,-27.93 345.1,-19.36"/>
<polygon fill="#63b8ff" stroke="#63b8ff" points="255.95,-47.35 247.7,-54 258.3,-53.95 255.95,-47.35"/>
</g>
</g>
</svg>
