<?xml version="1.0" encoding="UTF-8" standalone="no"?>
<!DOCTYPE svg PUBLIC "-//W3C//DTD SVG 1.1//EN"
 "http://www.w3.org/Graphics/SVG/1.1/DTD/svg11.dtd">
<!-- Generated by graphviz version 7.1.0 (0)
 -->
<!-- Title: src Pages: 1 -->
<svg width="244pt" height="114pt"
 viewBox="0.00 0.00 244.00 114.00" xmlns="http://www.w3.org/2000/svg" xmlns:xlink="http://www.w3.org/1999/xlink">
<g id="graph0" class="graph" transform="scale(1 1) rotate(0) translate(4 110)">
<title>src</title>
<g id="clust1" class="cluster">
<title>clusterdir_68267d1309a1af8e8297ef4c3efbcdba</title>
<g id="a_clust1"><a xlink:href="dir_68267d1309a1af8e8297ef4c3efbcdba.html" target="_top">
<polygon fill="#daedff" stroke="#404040" stroke-width="2" points="8,-8 8,-98 228,-98 228,-8 8,-8"/>
</a>
</g>
</g>
<!-- dir_68267d1309a1af8e8297ef4c3efbcdba -->
<g id="node1" class="node">
<title>dir_68267d1309a1af8e8297ef4c3efbcdba</title>
<text text-anchor="middle" x="205" y="-78" font-family="Helvetica,sans-Serif" font-size="10.00">src</text>
</g>
<!-- dir_08518efd943dc3b721567e262b32111a -->
<g id="node2" class="node">
<title>dir_08518efd943dc3b721567e262b32111a</title>
<g id="a_node2"><a xlink:href="dir_08518efd943dc3b721567e262b32111a.html" target="_top" xlink:title="bst">
<polygon fill="#4ea9ff" stroke="#404040" points="172,-90 142,-90 142,-71 172,-71 172,-90"/>
<text text-anchor="middle" x="157" y="-78" font-family="Helvetica,sans-Serif" font-size="10.00">bst</text>
</a>
</g>
</g>
<!-- dir_8ba429e0f466cca796e7032b0ff85278 -->
<g id="node4" class="node">
<title>dir_8ba429e0f466cca796e7032b0ff85278</title>
<g id="a_node4"><a xlink:href="dir_8ba429e0f466cca796e7032b0ff85278.html" target="_top" xlink:title="header&#45;only">
<polygon fill="#4ea9ff" stroke="#404040" points="129.5,-35 62.5,-35 62.5,-16 129.5,-16 129.5,-35"/>
<text text-anchor="middle" x="96" y="-23" font-family="Helvetica,sans-Serif" font-size="10.00">header&#45;only</text>
</a>
</g>
</g>
<!-- dir_08518efd943dc3b721567e262b32111a&#45;&gt;dir_8ba429e0f466cca796e7032b0ff85278 -->
<g id="edge1" class="edge">
<title>dir_08518efd943dc3b721567e262b32111a&#45;&gt;dir_8ba429e0f466cca796e7032b0ff85278</title>
<path fill="none" stroke="#63b8ff" d="M146.65,-70.51C137.92,-62.93 125.21,-51.88 114.7,-42.75"/>
<polygon fill="#63b8ff" stroke="#63b8ff" points="117.18,-40.27 107.34,-36.35 112.59,-45.55 117.18,-40.27"/>
<g id="a_edge1&#45;headlabel"><a xlink:href="dir_000000_000002.html" target="_top" xlink:title="2">
<text text-anchor="middle" x="120.61" y="-36.99" font-family="Helvetica,sans-Serif" font-size="10.00" fill="#63b8ff">2</text>
</a>
</g>
</g>
<!-- dir_61c650d699b1c3f7ad24ce436db18a08 -->
<g id="node3" class="node">
<title>dir_61c650d699b1c3f7ad24ce436db18a08</title>
<g id="a_node3"><a xlink:href="dir_61c650d699b1c3f7ad24ce436db18a08.html" target="_top" xlink:title="hashmap">
<polygon fill="#4ea9ff" stroke="#404040" points="124,-90 68,-90 68,-71 124,-71 124,-90"/>
<text text-anchor="middle" x="96" y="-78" font-family="Helvetica,sans-Serif" font-size="10.00">hashmap</text>
</a>
</g>
</g>
<!-- dir_61c650d699b1c3f7ad24ce436db18a08&#45;&gt;dir_8ba429e0f466cca796e7032b0ff85278 -->
<g id="edge2" class="edge">
<title>dir_61c650d699b1c3f7ad24ce436db18a08&#45;&gt;dir_8ba429e0f466cca796e7032b0ff85278</title>
<path fill="none" stroke="#63b8ff" d="M96,-70.75C96,-64.27 96,-55.16 96,-46.9"/>
<polygon fill="#63b8ff" stroke="#63b8ff" points="99.5,-46.96 96,-36.96 92.5,-46.96 99.5,-46.96"/>
<g id="a_edge2&#45;headlabel"><a xlink:href="dir_000001_000002.html" target="_top" xlink:title="3">
<text text-anchor="middle" x="102.34" y="-46.54" font-family="Helvetica,sans-Serif" font-size="10.00" fill="#63b8ff">3</text>
</a>
</g>
</g>
<!-- dir_7143b0b95d9d1c5ceb2618f5c2afc971 -->
<g id="node5" class="node">
<title>dir_7143b0b95d9d1c5ceb2618f5c2afc971</title>
<g id="a_node5"><a xlink:href="dir_7143b0b95d9d1c5ceb2618f5c2afc971.html" target="_top" xlink:title="sort">
<polygon fill="#4ea9ff" stroke="#404040" points="49.5,-90 16.5,-90 16.5,-71 49.5,-71 49.5,-90"/>
<text text-anchor="middle" x="33" y="-78" font-family="Helvetica,sans-Serif" font-size="10.00">sort</text>
</a>
</g>
</g>
<!-- dir_7143b0b95d9d1c5ceb2618f5c2afc971&#45;&gt;dir_8ba429e0f466cca796e7032b0ff85278 -->
<g id="edge3" class="edge">
<title>dir_7143b0b95d9d1c5ceb2618f5c2afc971&#45;&gt;dir_8ba429e0f466cca796e7032b0ff85278</title>
<path fill="none" stroke="#63b8ff" d="M43.69,-70.51C52.7,-62.93 65.83,-51.88 76.68,-42.75"/>
<polygon fill="#63b8ff" stroke="#63b8ff" points="78.91,-45.45 84.31,-36.33 74.41,-40.09 78.91,-45.45"/>
<g id="a_edge3&#45;headlabel"><a xlink:href="dir_000003_000002.html" target="_top" xlink:title="2">
<text text-anchor="middle" x="79.15" y="-46.46" font-family="Helvetica,sans-Serif" font-size="10.00" fill="#63b8ff">2</text>
</a>
</g>
</g>
</g>
</svg>
