<?xml version="1.0" encoding="UTF-8" standalone="no"?>
<!DOCTYPE svg PUBLIC "-//W3C//DTD SVG 1.1//EN"
 "http://www.w3.org/Graphics/SVG/1.1/DTD/svg11.dtd">
<!-- Generated by graphviz version 7.1.0 (0)
 -->
<!-- Title: src Pages: 1 -->
<svg width="306pt" height="114pt"
 viewBox="0.00 0.00 306.00 114.00" xmlns="http://www.w3.org/2000/svg" xmlns:xlink="http://www.w3.org/1999/xlink">
<g id="graph0" class="graph" transform="scale(1 1) rotate(0) translate(4 110)">
<title>src</title>
<g id="clust1" class="cluster">
<title>clusterdir_68267d1309a1af8e8297ef4c3efbcdba</title>
<g id="a_clust1"><a xlink:href="dir_68267d1309a1af8e8297ef4c3efbcdba.html" target="_top">
<polygon fill="#daedff" stroke="#404040" stroke-width="2" points="8,-8 8,-98 290,-98 290,-8 8,-8"/>
</a>
</g>
</g>
<!-- dir_68267d1309a1af8e8297ef4c3efbcdba -->
<g id="node1" class="node">
<title>dir_68267d1309a1af8e8297ef4c3efbcdba</title>
<text text-anchor="middle" x="267" y="-78" font-family="Helvetica,sans-Serif" font-size="10.00">src</text>
</g>
<!-- dir_08518efd943dc3b721567e262b32111a -->
<g id="node2" class="node">
<title>dir_08518efd943dc3b721567e262b32111a</title>
<g id="a_node2"><a xlink:href="dir_08518efd943dc3b721567e262b32111a.html" target="_top" xlink:title="bst">
<polygon fill="#4ea9ff" stroke="#404040" points="234,-90 204,-90 204,-71 234,-71 234,-90"/>
<text text-anchor="middle" x="219" y="-78" font-family="Helvetica,sans-Serif" font-size="10.00">bst</text>
</a>
</g>
</g>
<!-- dir_8ba429e0f466cca796e7032b0ff85278 -->
<g id="node4" class="node">
<title>dir_8ba429e0f466cca796e7032b0ff85278</title>
<g id="a_node4"><a xlink:href="dir_8ba429e0f466cca796e7032b0ff85278.html" target="_top" xlink:title="header&#45;only">
<polygon fill="#4ea9ff" stroke="#404040" points="159.5,-35 92.5,-35 92.5,-16 159.5,-16 159.5,-35"/>
<text text-anchor="middle" x="126" y="-23" font-family="Helvetica,sans-Serif" font-size="10.00">header&#45;only</text>
</a>
</g>
</g>
<!-- dir_08518efd943dc3b721567e262b32111a&#45;&gt;dir_8ba429e0f466cca796e7032b0ff85278 -->
<g id="edge1" class="edge">
<title>dir_08518efd943dc3b721567e262b32111a&#45;&gt;dir_8ba429e0f466cca796e7032b0ff85278</title>
<path fill="none" stroke="#63b8ff" d="M203.64,-70.75C189.46,-62.66 168.12,-50.5 151.4,-40.97"/>
<polygon fill="#63b8ff" stroke="#63b8ff" points="153.43,-38.1 143.01,-36.19 149.96,-44.18 153.43,-38.1"/>
<g id="a_edge1&#45;headlabel"><a xlink:href="dir_000000_000002.html" target="_top" xlink:title="2">
<text text-anchor="middle" x="156.64" y="-34.17" font-family="Helvetica,sans-Serif" font-size="10.00" fill="#63b8ff">2</text>
</a>
</g>
</g>
<!-- dir_61c650d699b1c3f7ad24ce436db18a08 -->
<g id="node3" class="node">
<title>dir_61c650d699b1c3f7ad24ce436db18a08</title>
<g id="a_node3"><a xlink:href="dir_61c650d699b1c3f7ad24ce436db18a08.html" target="_top" xlink:title="hashmap">
<polygon fill="#4ea9ff" stroke="#404040" points="186,-90 130,-90 130,-71 186,-71 186,-90"/>
<text text-anchor="middle" x="158" y="-78" font-family="Helvetica,sans-Serif" font-size="10.00">hashmap</text>
</a>
</g>
</g>
<!-- dir_61c650d699b1c3f7ad24ce436db18a08&#45;&gt;dir_8ba429e0f466cca796e7032b0ff85278 -->
<g id="edge2" class="edge">
<title>dir_61c650d699b1c3f7ad24ce436db18a08&#45;&gt;dir_8ba429e0f466cca796e7032b0ff85278</title>
<path fill="none" stroke="#63b8ff" d="M152.72,-70.75C148.53,-63.81 142.52,-53.86 137.27,-45.16"/>
<polygon fill="#63b8ff" stroke="#63b8ff" points="140.35,-43.49 132.18,-36.74 134.35,-47.11 140.35,-43.49"/>
<g id="a_edge2&#45;headlabel"><a xlink:href="dir_000001_000002.html" target="_top" xlink:title="3">
<text text-anchor="middle" x="143.85" y="-41.3" font-family="Helvetica,sans-Serif" font-size="10.00" fill="#63b8ff">3</text>
</a>
</g>
</g>
<!-- dir_7143b0b95d9d1c5ceb2618f5c2afc971 -->
<g id="node5" class="node">
<title>dir_7143b0b95d9d1c5ceb2618f5c2afc971</title>
<g id="a_node5"><a xlink:href="dir_7143b0b95d9d1c5ceb2618f5c2afc971.html" target="_top" xlink:title="sort">
<polygon fill="#4ea9ff" stroke="#404040" points="111.5,-90 78.5,-90 78.5,-71 111.5,-71 111.5,-90"/>
<text text-anchor="middle" x="95" y="-78" font-family="Helvetica,sans-Serif" font-size="10.00">sort</text>
</a>
</g>
</g>
<!-- dir_7143b0b95d9d1c5ceb2618f5c2afc971&#45;&gt;dir_8ba429e0f466cca796e7032b0ff85278 -->
<g id="edge3" class="edge">
<title>dir_7143b0b95d9d1c5ceb2618f5c2afc971&#45;&gt;dir_8ba429e0f466cca796e7032b0ff85278</title>
<path fill="none" stroke="#63b8ff" d="M100.12,-70.75C104.18,-63.81 109.99,-53.86 115.09,-45.16"/>
<polygon fill="#63b8ff" stroke="#63b8ff" points="117.98,-47.15 120.01,-36.75 111.94,-43.61 117.98,-47.15"/>
<g id="a_edge3&#45;headlabel"><a xlink:href="dir_000003_000002.html" target="_top" xlink:title="2">
<text text-anchor="middle" x="119.38" y="-47.88" font-family="Helvetica,sans-Serif" font-size="10.00" fill="#63b8ff">2</text>
</a>
</g>
</g>
<!-- dir_0baa9f3d984dd29d1429171590d769d6 -->
<g id="node6" class="node">
<title>dir_0baa9f3d984dd29d1429171590d769d6</title>
<g id="a_node6"><a xlink:href="dir_0baa9f3d984dd29d1429171590d769d6.html" target="_top" xlink:title="vector">
<polygon fill="#4ea9ff" stroke="#404040" points="60,-90 16,-90 16,-71 60,-71 60,-90"/>
<text text-anchor="middle" x="38" y="-78" font-family="Helvetica,sans-Serif" font-size="10.00">vector</text>
</a>
</g>
</g>
<!-- dir_0baa9f3d984dd29d1429171590d769d6&#45;&gt;dir_8ba429e0f466cca796e7032b0ff85278 -->
<g id="edge4" class="edge">
<title>dir_0baa9f3d984dd29d1429171590d769d6&#45;&gt;dir_8ba429e0f466cca796e7032b0ff85278</title>
<path fill="none" stroke="#63b8ff" d="M52.93,-70.51C66.28,-62.47 86.11,-50.53 101.74,-41.11"/>
<polygon fill="#63b8ff" stroke="#63b8ff" points="103.24,-44.3 110,-36.14 99.62,-38.3 103.24,-44.3"/>
<g id="a_edge4&#45;headlabel"><a xlink:href="dir_000006_000002.html" target="_top" xlink:title="1">
<text text-anchor="middle" x="102.92" y="-45.3" font-family="Helvetica,sans-Serif" font-size="10.00" fill="#63b8ff">1</text>
</a>
</g>
</g>
</g>
</svg>
