<?xml version="1.0" encoding="UTF-8" standalone="no"?>
<!DOCTYPE svg PUBLIC "-//W3C//DTD SVG 1.1//EN"
 "http://www.w3.org/Graphics/SVG/1.1/DTD/svg11.dtd">
<!-- Generated by graphviz version 7.1.0 (0)
 -->
<!-- Title: src/hashmap/hashmap.c Pages: 1 -->
<svg width="469pt" height="137pt"
 viewBox="0.00 0.00 469.00 137.00" xmlns="http://www.w3.org/2000/svg" xmlns:xlink="http://www.w3.org/1999/xlink">
<g id="graph0" class="graph" transform="scale(1 1) rotate(0) translate(4 133)">
<title>src/hashmap/hashmap.c</title>
<!-- Node1 -->
<g id="node1" class="node">
<title>Node1</title>
<g id="a_node1"><a xlink:title=" ">
<polygon fill="#999999" stroke="#666666" points="325,-129 201,-129 201,-110 325,-110 325,-129"/>
<text text-anchor="middle" x="263" y="-117" font-family="Helvetica,sans-Serif" font-size="10.00">src/hashmap/hashmap.c</text>
</a>
</g>
</g>
<!-- Node2 -->
<g id="node2" class="node">
<title>Node2</title>
<g id="a_node2"><a xlink:title=" ">
<polygon fill="#e0e0e0" stroke="#999999" points="52,-74 0,-74 0,-55 52,-55 52,-74"/>
<text text-anchor="middle" x="26" y="-62" font-family="Helvetica,sans-Serif" font-size="10.00">assert.h</text>
</a>
</g>
</g>
<!-- Node1&#45;&gt;Node2 -->
<g id="edge1" class="edge">
<title>Node1&#45;&gt;Node2</title>
<path fill="none" stroke="#63b8ff" d="M222.8,-109.51C178.28,-99.55 107.07,-83.63 63.62,-73.91"/>
<polygon fill="#63b8ff" stroke="#63b8ff" points="64.41,-70.5 53.89,-71.74 62.88,-77.33 64.41,-70.5"/>
</g>
<!-- Node3 -->
<g id="node3" class="node">
<title>Node3</title>
<g id="a_node3"><a xlink:href="memory_8h.html" target="_top" xlink:title=" ">
<polygon fill="white" stroke="#666666" points="292.5,-74 233.5,-74 233.5,-55 292.5,-55 292.5,-74"/>
<text text-anchor="middle" x="263" y="-62" font-family="Helvetica,sans-Serif" font-size="10.00">memory.h</text>
</a>
</g>
</g>
<!-- Node1&#45;&gt;Node3 -->
<g id="edge2" class="edge">
<title>Node1&#45;&gt;Node3</title>
<path fill="none" stroke="#63b8ff" d="M263,-109.75C263,-103.27 263,-94.16 263,-85.9"/>
<polygon fill="#63b8ff" stroke="#63b8ff" points="266.5,-85.96 263,-75.96 259.5,-85.96 266.5,-85.96"/>
</g>
<!-- Node4 -->
<g id="node4" class="node">
<title>Node4</title>
<g id="a_node4"><a xlink:title=" ">
<polygon fill="#e0e0e0" stroke="#999999" points="204,-19 152,-19 152,0 204,0 204,-19"/>
<text text-anchor="middle" x="178" y="-7" font-family="Helvetica,sans-Serif" font-size="10.00">stddef.h</text>
</a>
</g>
</g>
<!-- Node1&#45;&gt;Node4 -->
<g id="edge5" class="edge">
<title>Node1&#45;&gt;Node4</title>
<path fill="none" stroke="#63b8ff" d="M200.66,-109.55C159.76,-102.26 111.59,-90.46 99,-74 82.79,-52.81 113.5,-34.44 141.23,-22.99"/>
<polygon fill="#63b8ff" stroke="#63b8ff" points="142.15,-26.39 150.2,-19.5 139.61,-19.86 142.15,-26.39"/>
</g>
<!-- Node5 -->
<g id="node5" class="node">
<title>Node5</title>
<g id="a_node5"><a xlink:title=" ">
<polygon fill="#e0e0e0" stroke="#999999" points="287.5,-19 238.5,-19 238.5,0 287.5,0 287.5,-19"/>
<text text-anchor="middle" x="263" y="-7" font-family="Helvetica,sans-Serif" font-size="10.00">stdint.h</text>
</a>
</g>
</g>
<!-- Node1&#45;&gt;Node5 -->
<g id="edge6" class="edge">
<title>Node1&#45;&gt;Node5</title>
<path fill="none" stroke="#63b8ff" d="M274.36,-109.67C283.78,-101.56 296.5,-88.61 302,-74 308.44,-56.88 295.87,-39.3 283.33,-27"/>
<polygon fill="#63b8ff" stroke="#63b8ff" points="285.78,-24.49 276.01,-20.4 281.09,-29.69 285.78,-24.49"/>
</g>
<!-- Node6 -->
<g id="node6" class="node">
<title>Node6</title>
<g id="a_node6"><a xlink:title=" ">
<polygon fill="#e0e0e0" stroke="#999999" points="395,-74 349,-74 349,-55 395,-55 395,-74"/>
<text text-anchor="middle" x="372" y="-62" font-family="Helvetica,sans-Serif" font-size="10.00">stdio.h</text>
</a>
</g>
</g>
<!-- Node1&#45;&gt;Node6 -->
<g id="edge7" class="edge">
<title>Node1&#45;&gt;Node6</title>
<path fill="none" stroke="#63b8ff" d="M281.49,-109.51C298.5,-101.24 323.99,-88.84 343.59,-79.31"/>
<polygon fill="#63b8ff" stroke="#63b8ff" points="344.96,-82.54 352.42,-75.02 341.9,-76.25 344.96,-82.54"/>
</g>
<!-- Node7 -->
<g id="node7" class="node">
<title>Node7</title>
<g id="a_node7"><a xlink:title=" ">
<polygon fill="#e0e0e0" stroke="#999999" points="461,-74 413,-74 413,-55 461,-55 461,-74"/>
<text text-anchor="middle" x="437" y="-62" font-family="Helvetica,sans-Serif" font-size="10.00">stdlib.h</text>
</a>
</g>
</g>
<!-- Node1&#45;&gt;Node7 -->
<g id="edge8" class="edge">
<title>Node1&#45;&gt;Node7</title>
<path fill="none" stroke="#63b8ff" d="M292.52,-109.51C322.79,-100.29 369.86,-85.95 401.99,-76.16"/>
<polygon fill="#63b8ff" stroke="#63b8ff" points="402.69,-79.61 411.23,-73.35 400.65,-72.91 402.69,-79.61"/>
</g>
<!-- Node8 -->
<g id="node8" class="node">
<title>Node8</title>
<g id="a_node8"><a xlink:href="maybe_8h.html" target="_top" xlink:title=" ">
<polygon fill="white" stroke="#666666" points="215.5,-74 108.5,-74 108.5,-55 215.5,-55 215.5,-74"/>
<text text-anchor="middle" x="162" y="-62" font-family="Helvetica,sans-Serif" font-size="10.00">header&#45;only/maybe.h</text>
</a>
</g>
</g>
<!-- Node1&#45;&gt;Node8 -->
<g id="edge9" class="edge">
<title>Node1&#45;&gt;Node8</title>
<path fill="none" stroke="#63b8ff" d="M245.87,-109.51C230.25,-101.31 206.92,-89.07 188.83,-79.58"/>
<polygon fill="#63b8ff" stroke="#63b8ff" points="190.7,-76.61 180.22,-75.06 187.45,-82.81 190.7,-76.61"/>
</g>
<!-- Node3&#45;&gt;Node4 -->
<g id="edge3" class="edge">
<title>Node3&#45;&gt;Node4</title>
<path fill="none" stroke="#63b8ff" d="M248.58,-54.51C235.8,-46.54 216.9,-34.75 201.87,-25.38"/>
<polygon fill="#63b8ff" stroke="#63b8ff" points="203.83,-22.48 193.49,-20.16 200.12,-28.42 203.83,-22.48"/>
</g>
<!-- Node3&#45;&gt;Node5 -->
<g id="edge4" class="edge">
<title>Node3&#45;&gt;Node5</title>
<path fill="none" stroke="#63b8ff" d="M263,-54.75C263,-48.27 263,-39.16 263,-30.9"/>
<polygon fill="#63b8ff" stroke="#63b8ff" points="266.5,-30.96 263,-20.96 259.5,-30.96 266.5,-30.96"/>
</g>
<!-- Node8&#45;&gt;Node4 -->
<g id="edge11" class="edge">
<title>Node8&#45;&gt;Node4</title>
<path fill="none" stroke="#63b8ff" d="M164.64,-54.75C166.64,-48.11 169.48,-38.73 172.02,-30.31"/>
<polygon fill="#63b8ff" stroke="#63b8ff" points="175.32,-31.48 174.86,-20.89 168.62,-29.45 175.32,-31.48"/>
</g>
<!-- Node8&#45;&gt;Node5 -->
<g id="edge12" class="edge">
<title>Node8&#45;&gt;Node5</title>
<path fill="none" stroke="#63b8ff" d="M179.13,-54.51C194.75,-46.31 218.08,-34.07 236.17,-24.58"/>
<polygon fill="#63b8ff" stroke="#63b8ff" points="237.55,-27.81 244.78,-20.06 234.3,-21.61 237.55,-27.81"/>
</g>
<!-- Node9 -->
<g id="node9" class="node">
<title>Node9</title>
<g id="a_node9"><a xlink:title=" ">
<polygon fill="#e0e0e0" stroke="#999999" points="134,-19 78,-19 78,0 134,0 134,-19"/>
<text text-anchor="middle" x="106" y="-7" font-family="Helvetica,sans-Serif" font-size="10.00">stdbool.h</text>
</a>
</g>
</g>
<!-- Node8&#45;&gt;Node9 -->
<g id="edge10" class="edge">
<title>Node8&#45;&gt;Node9</title>
<path fill="none" stroke="#63b8ff" d="M152.5,-54.51C144.57,-47 133.05,-36.1 123.46,-27.03"/>
<polygon fill="#63b8ff" stroke="#63b8ff" points="126.13,-24.73 116.46,-20.4 121.32,-29.81 126.13,-24.73"/>
</g>
</g>
</svg>
