<?xml version="1.0" encoding="UTF-8" standalone="no"?>
<!DOCTYPE svg PUBLIC "-//W3C//DTD SVG 1.1//EN"
 "http://www.w3.org/Graphics/SVG/1.1/DTD/svg11.dtd">
<!-- Generated by graphviz version 7.1.0 (0)
 -->
<!-- Title: src/hashmap/hashmap.h Pages: 1 -->
<svg width="245pt" height="137pt"
 viewBox="0.00 0.00 245.12 137.00" xmlns="http://www.w3.org/2000/svg" xmlns:xlink="http://www.w3.org/1999/xlink">
<g id="graph0" class="graph" transform="scale(1 1) rotate(0) translate(4 133)">
<title>src/hashmap/hashmap.h</title>
<!-- Node1 -->
<g id="node1" class="node">
<title>Node1</title>
<g id="a_node1"><a xlink:title=" ">
<polygon fill="#999999" stroke="#666666" points="188,-129 64,-129 64,-110 188,-110 188,-129"/>
<text text-anchor="middle" x="126" y="-117" font-family="Helvetica,sans-Serif" font-size="10.00">src/hashmap/hashmap.h</text>
</a>
</g>
</g>
<!-- Node2 -->
<g id="node2" class="node">
<title>Node2</title>
<g id="a_node2"><a xlink:title=" ">
<polygon fill="#e0e0e0" stroke="#999999" points="56,-74 0,-74 0,-55 56,-55 56,-74"/>
<text text-anchor="middle" x="28" y="-62" font-family="Helvetica,sans-Serif" font-size="10.00">stdbool.h</text>
</a>
</g>
</g>
<!-- Node1&#45;&gt;Node2 -->
<g id="edge1" class="edge">
<title>Node1&#45;&gt;Node2</title>
<path fill="none" stroke="#63b8ff" d="M109.38,-109.51C94.22,-101.31 71.58,-89.07 54.03,-79.58"/>
<polygon fill="#63b8ff" stroke="#63b8ff" points="56.17,-76.76 45.71,-75.08 52.84,-82.91 56.17,-76.76"/>
</g>
<!-- Node3 -->
<g id="node3" class="node">
<title>Node3</title>
<g id="a_node3"><a xlink:title=" ">
<polygon fill="#e0e0e0" stroke="#999999" points="156,-19 104,-19 104,0 156,0 156,-19"/>
<text text-anchor="middle" x="130" y="-7" font-family="Helvetica,sans-Serif" font-size="10.00">stddef.h</text>
</a>
</g>
</g>
<!-- Node1&#45;&gt;Node3 -->
<g id="edge2" class="edge">
<title>Node1&#45;&gt;Node3</title>
<path fill="none" stroke="#63b8ff" d="M119.04,-109.59C110.4,-97.43 97.44,-74.87 103,-55 105.61,-45.67 110.77,-36.34 115.89,-28.66"/>
<polygon fill="#63b8ff" stroke="#63b8ff" points="118.71,-30.74 121.71,-20.58 113.03,-26.65 118.71,-30.74"/>
</g>
<!-- Node4 -->
<g id="node4" class="node">
<title>Node4</title>
<g id="a_node4"><a xlink:title=" ">
<polygon fill="#e0e0e0" stroke="#999999" points="230.5,-19 181.5,-19 181.5,0 230.5,0 230.5,-19"/>
<text text-anchor="middle" x="206" y="-7" font-family="Helvetica,sans-Serif" font-size="10.00">stdint.h</text>
</a>
</g>
</g>
<!-- Node1&#45;&gt;Node4 -->
<g id="edge3" class="edge">
<title>Node1&#45;&gt;Node4</title>
<path fill="none" stroke="#63b8ff" d="M178.73,-109.55C199.24,-103.21 220.72,-92.41 233,-74 242.63,-59.57 232.72,-41.14 222.3,-27.86"/>
<polygon fill="#63b8ff" stroke="#63b8ff" points="225.04,-25.68 215.88,-20.37 219.73,-30.24 225.04,-25.68"/>
</g>
<!-- Node5 -->
<g id="node5" class="node">
<title>Node5</title>
<g id="a_node5"><a xlink:href="memory_8h.html" target="_top" xlink:title=" ">
<polygon fill="white" stroke="#666666" points="224,-74 112,-74 112,-55 224,-55 224,-74"/>
<text text-anchor="middle" x="168" y="-62" font-family="Helvetica,sans-Serif" font-size="10.00">header&#45;only/memory.h</text>
</a>
</g>
</g>
<!-- Node1&#45;&gt;Node5 -->
<g id="edge4" class="edge">
<title>Node1&#45;&gt;Node5</title>
<path fill="none" stroke="#63b8ff" d="M132.94,-109.75C138.62,-102.58 146.84,-92.2 153.89,-83.3"/>
<polygon fill="#63b8ff" stroke="#63b8ff" points="156.51,-85.64 159.97,-75.63 151.02,-81.29 156.51,-85.64"/>
</g>
<!-- Node5&#45;&gt;Node3 -->
<g id="edge5" class="edge">
<title>Node5&#45;&gt;Node3</title>
<path fill="none" stroke="#63b8ff" d="M161.73,-54.75C156.64,-47.66 149.3,-37.42 142.97,-28.59"/>
<polygon fill="#63b8ff" stroke="#63b8ff" points="145.96,-26.76 137.29,-20.67 140.28,-30.84 145.96,-26.76"/>
</g>
<!-- Node5&#45;&gt;Node4 -->
<g id="edge6" class="edge">
<title>Node5&#45;&gt;Node4</title>
<path fill="none" stroke="#63b8ff" d="M174.27,-54.75C179.36,-47.66 186.7,-37.42 193.03,-28.59"/>
<polygon fill="#63b8ff" stroke="#63b8ff" points="195.72,-30.84 198.71,-20.67 190.04,-26.76 195.72,-30.84"/>
</g>
</g>
</svg>
