<?xml version="1.0" encoding="UTF-8" standalone="no"?>
<!DOCTYPE svg PUBLIC "-//W3C//DTD SVG 1.1//EN"
 "http://www.w3.org/Graphics/SVG/1.1/DTD/svg11.dtd">
<!-- Generated by graphviz version 7.1.0 (0)
 -->
<!-- Title: src/header&#45;only/maybe.h Pages: 1 -->
<svg width="202pt" height="82pt"
 viewBox="0.00 0.00 201.50 82.00" xmlns="http://www.w3.org/2000/svg" xmlns:xlink="http://www.w3.org/1999/xlink">
<g id="graph0" class="graph" transform="scale(1 1) rotate(0) translate(4 78)">
<title>src/header&#45;only/maybe.h</title>
<!-- Node1 -->
<g id="node1" class="node">
<title>Node1</title>
<g id="a_node1"><a xlink:title=" ">
<polygon fill="#999999" stroke="#666666" points="162,-74 38,-74 38,-55 162,-55 162,-74"/>
<text text-anchor="middle" x="100" y="-62" font-family="Helvetica,sans-Serif" font-size="10.00">src/header&#45;only/maybe.h</text>
</a>
</g>
</g>
<!-- Node2 -->
<g id="node2" class="node">
<title>Node2</title>
<g id="a_node2"><a xlink:title=" ">
<polygon fill="#e0e0e0" stroke="#999999" points="56,-19 0,-19 0,0 56,0 56,-19"/>
<text text-anchor="middle" x="28" y="-7" font-family="Helvetica,sans-Serif" font-size="10.00">stdbool.h</text>
</a>
</g>
</g>
<!-- Node1&#45;&gt;Node2 -->
<g id="edge1" class="edge">
<title>Node1&#45;&gt;Node2</title>
<path fill="none" stroke="#63b8ff" d="M87.79,-54.51C77.17,-46.7 61.56,-35.21 48.96,-25.93"/>
<polygon fill="#63b8ff" stroke="#63b8ff" points="51.38,-23.36 41.25,-20.26 47.23,-29 51.38,-23.36"/>
</g>
<!-- Node3 -->
<g id="node3" class="node">
<title>Node3</title>
<g id="a_node3"><a xlink:title=" ">
<polygon fill="#e0e0e0" stroke="#999999" points="126,-19 74,-19 74,0 126,0 126,-19"/>
<text text-anchor="middle" x="100" y="-7" font-family="Helvetica,sans-Serif" font-size="10.00">stddef.h</text>
</a>
</g>
</g>
<!-- Node1&#45;&gt;Node3 -->
<g id="edge2" class="edge">
<title>Node1&#45;&gt;Node3</title>
<path fill="none" stroke="#63b8ff" d="M100,-54.75C100,-48.27 100,-39.16 100,-30.9"/>
<polygon fill="#63b8ff" stroke="#63b8ff" points="103.5,-30.96 100,-20.96 96.5,-30.96 103.5,-30.96"/>
</g>
<!-- Node4 -->
<g id="node4" class="node">
<title>Node4</title>
<g id="a_node4"><a xlink:title=" ">
<polygon fill="#e0e0e0" stroke="#999999" points="193.5,-19 144.5,-19 144.5,0 193.5,0 193.5,-19"/>
<text text-anchor="middle" x="169" y="-7" font-family="Helvetica,sans-Serif" font-size="10.00">stdint.h</text>
</a>
</g>
</g>
<!-- Node1&#45;&gt;Node4 -->
<g id="edge3" class="edge">
<title>Node1&#45;&gt;Node4</title>
<path fill="none" stroke="#63b8ff" d="M111.7,-54.51C121.78,-46.77 136.54,-35.43 148.56,-26.2"/>
<polygon fill="#63b8ff" stroke="#63b8ff" points="150.47,-29.15 156.27,-20.28 146.21,-23.6 150.47,-29.15"/>
</g>
</g>
</svg>
