<?xml version="1.0" encoding="UTF-8" standalone="no"?>
<!DOCTYPE svg PUBLIC "-//W3C//DTD SVG 1.1//EN"
 "http://www.w3.org/Graphics/SVG/1.1/DTD/svg11.dtd">
<!-- Generated by graphviz version 7.1.0 (0)
 -->
<!-- Title: src/header&#45;only/memory.h Pages: 1 -->
<svg width="400pt" height="137pt"
 viewBox="0.00 0.00 400.00 137.00" xmlns="http://www.w3.org/2000/svg" xmlns:xlink="http://www.w3.org/1999/xlink">
<g id="graph0" class="graph" transform="scale(1 1) rotate(0) translate(4 133)">
<title>src/header&#45;only/memory.h</title>
<!-- Node1 -->
<g id="node1" class="node">
<title>Node1</title>
<g id="a_node1"><a xlink:title=" ">
<polygon fill="#999999" stroke="#666666" points="252.5,-129 124.5,-129 124.5,-110 252.5,-110 252.5,-129"/>
<text text-anchor="middle" x="188.5" y="-117" font-family="Helvetica,sans-Serif" font-size="10.00">src/header&#45;only/memory.h</text>
</a>
</g>
</g>
<!-- Node2 -->
<g id="node2" class="node">
<title>Node2</title>
<g id="a_node2"><a xlink:href="bst_8c.html" target="_top" xlink:title=" ">
<polygon fill="white" stroke="#666666" points="71,-74 0,-74 0,-55 71,-55 71,-74"/>
<text text-anchor="middle" x="35.5" y="-62" font-family="Helvetica,sans-Serif" font-size="10.00">src/bst/bst.c</text>
</a>
</g>
</g>
<!-- Node1&#45;&gt;Node2 -->
<g id="edge1" class="edge">
<title>Node1&#45;&gt;Node2</title>
<path fill="none" stroke="#63b8ff" d="M151.99,-105.85C124.05,-96.17 86.19,-83.06 61.33,-74.45"/>
<polygon fill="#63b8ff" stroke="#63b8ff" points="150.52,-109.05 161.12,-109.01 152.81,-102.43 150.52,-109.05"/>
</g>
<!-- Node3 -->
<g id="node3" class="node">
<title>Node3</title>
<g id="a_node3"><a xlink:href="bst_8h.html" target="_top" xlink:title=" ">
<polygon fill="white" stroke="#666666" points="160,-74 89,-74 89,-55 160,-55 160,-74"/>
<text text-anchor="middle" x="124.5" y="-62" font-family="Helvetica,sans-Serif" font-size="10.00">src/bst/bst.h</text>
</a>
</g>
</g>
<!-- Node1&#45;&gt;Node3 -->
<g id="edge2" class="edge">
<title>Node1&#45;&gt;Node3</title>
<path fill="none" stroke="#63b8ff" d="M169.02,-102.37C157.9,-93.16 144.4,-81.98 135.2,-74.36"/>
<polygon fill="#63b8ff" stroke="#63b8ff" points="166.54,-104.86 176.48,-108.54 171.01,-99.47 166.54,-104.86"/>
</g>
<!-- Node4 -->
<g id="node4" class="node">
<title>Node4</title>
<g id="a_node4"><a xlink:href="test__bst_8c.html" target="_top" xlink:title=" ">
<polygon fill="white" stroke="#666666" points="228.5,-19 148.5,-19 148.5,0 228.5,0 228.5,-19"/>
<text text-anchor="middle" x="188.5" y="-7" font-family="Helvetica,sans-Serif" font-size="10.00">test/test_bst.c</text>
</a>
</g>
</g>
<!-- Node1&#45;&gt;Node4 -->
<g id="edge8" class="edge">
<title>Node1&#45;&gt;Node4</title>
<path fill="none" stroke="#63b8ff" d="M188.5,-98.24C188.5,-74.63 188.5,-36.65 188.5,-19.46"/>
<polygon fill="#63b8ff" stroke="#63b8ff" points="185,-98.15 188.5,-108.15 192,-98.15 185,-98.15"/>
</g>
<!-- Node5 -->
<g id="node5" class="node">
<title>Node5</title>
<g id="a_node5"><a xlink:href="sort_8c.html" target="_top" xlink:title=" ">
<polygon fill="white" stroke="#666666" points="294,-74 217,-74 217,-55 294,-55 294,-74"/>
<text text-anchor="middle" x="255.5" y="-62" font-family="Helvetica,sans-Serif" font-size="10.00">src/sort/sort.c</text>
</a>
</g>
</g>
<!-- Node1&#45;&gt;Node5 -->
<g id="edge4" class="edge">
<title>Node1&#45;&gt;Node5</title>
<path fill="none" stroke="#63b8ff" d="M208.55,-102.64C220.25,-93.39 234.57,-82.05 244.3,-74.36"/>
<polygon fill="#63b8ff" stroke="#63b8ff" points="206.72,-99.62 201.05,-108.57 211.07,-105.11 206.72,-99.62"/>
</g>
<!-- Node6 -->
<g id="node6" class="node">
<title>Node6</title>
<g id="a_node6"><a xlink:href="sort_8h.html" target="_top" xlink:title=" ">
<polygon fill="white" stroke="#666666" points="389,-74 312,-74 312,-55 389,-55 389,-74"/>
<text text-anchor="middle" x="350.5" y="-62" font-family="Helvetica,sans-Serif" font-size="10.00">src/sort/sort.h</text>
</a>
</g>
</g>
<!-- Node1&#45;&gt;Node6 -->
<g id="edge5" class="edge">
<title>Node1&#45;&gt;Node6</title>
<path fill="none" stroke="#63b8ff" d="M226.76,-105.98C256.39,-96.29 296.71,-83.1 323.15,-74.45"/>
<polygon fill="#63b8ff" stroke="#63b8ff" points="225.84,-102.6 217.42,-109.04 228.01,-109.26 225.84,-102.6"/>
</g>
<!-- Node3&#45;&gt;Node4 -->
<g id="edge3" class="edge">
<title>Node3&#45;&gt;Node4</title>
<path fill="none" stroke="#63b8ff" d="M143.98,-47.37C155.1,-38.16 168.6,-26.98 177.8,-19.36"/>
<polygon fill="#63b8ff" stroke="#63b8ff" points="141.99,-44.47 136.52,-53.54 146.46,-49.86 141.99,-44.47"/>
</g>
<!-- Node6&#45;&gt;Node4 -->
<g id="edge6" class="edge">
<title>Node6&#45;&gt;Node4</title>
<path fill="none" stroke="#63b8ff" d="M312.24,-50.98C282.61,-41.29 242.29,-28.1 215.85,-19.45"/>
<polygon fill="#63b8ff" stroke="#63b8ff" points="310.99,-54.26 321.58,-54.04 313.16,-47.6 310.99,-54.26"/>
</g>
<!-- Node7 -->
<g id="node7" class="node">
<title>Node7</title>
<g id="a_node7"><a xlink:href="test__sort_8c.html" target="_top" xlink:title=" ">
<polygon fill="white" stroke="#666666" points="392,-19 309,-19 309,0 392,0 392,-19"/>
<text text-anchor="middle" x="350.5" y="-7" font-family="Helvetica,sans-Serif" font-size="10.00">test/test_sort.c</text>
</a>
</g>
</g>
<!-- Node6&#45;&gt;Node7 -->
<g id="edge7" class="edge">
<title>Node6&#45;&gt;Node7</title>
<path fill="none" stroke="#63b8ff" d="M350.5,-43.35C350.5,-35.1 350.5,-25.97 350.5,-19.44"/>
<polygon fill="#63b8ff" stroke="#63b8ff" points="347,-43.23 350.5,-53.23 354,-43.23 347,-43.23"/>
</g>
</g>
</svg>
