<?xml version="1.0" encoding="UTF-8" standalone="no"?>
<!DOCTYPE svg PUBLIC "-//W3C//DTD SVG 1.1//EN"
 "http://www.w3.org/Graphics/SVG/1.1/DTD/svg11.dtd">
<!-- Generated by graphviz version 7.1.0 (0)
 -->
<!-- Title: src/header&#45;only/memory.h Pages: 1 -->
<svg width="697pt" height="137pt"
 viewBox="0.00 0.00 696.76 137.00" xmlns="http://www.w3.org/2000/svg" xmlns:xlink="http://www.w3.org/1999/xlink">
<g id="graph0" class="graph" transform="scale(1 1) rotate(0) translate(4 133)">
<title>src/header&#45;only/memory.h</title>
<!-- Node1 -->
<g id="node1" class="node">
<title>Node1</title>
<g id="a_node1"><a xlink:title=" ">
<polygon fill="#999999" stroke="#666666" points="401.5,-129 273.5,-129 273.5,-110 401.5,-110 401.5,-129"/>
<text text-anchor="middle" x="337.5" y="-117" font-family="Helvetica,sans-Serif" font-size="10.00">src/header&#45;only/memory.h</text>
</a>
</g>
</g>
<!-- Node2 -->
<g id="node2" class="node">
<title>Node2</title>
<g id="a_node2"><a xlink:href="bst_8c.html" target="_top" xlink:title=" ">
<polygon fill="white" stroke="#666666" points="71,-74 0,-74 0,-55 71,-55 71,-74"/>
<text text-anchor="middle" x="35.5" y="-62" font-family="Helvetica,sans-Serif" font-size="10.00">src/bst/bst.c</text>
</a>
</g>
</g>
<!-- Node1&#45;&gt;Node2 -->
<g id="edge1" class="edge">
<title>Node1&#45;&gt;Node2</title>
<path fill="none" stroke="#63b8ff" d="M272.47,-107.65C220.27,-98.86 145.11,-85.99 79.5,-74 76.74,-73.5 73.89,-72.97 71.03,-72.43"/>
<polygon fill="#63b8ff" stroke="#63b8ff" points="271.65,-111.06 282.09,-109.27 272.81,-104.16 271.65,-111.06"/>
</g>
<!-- Node3 -->
<g id="node3" class="node">
<title>Node3</title>
<g id="a_node3"><a xlink:href="bst_8h.html" target="_top" xlink:title=" ">
<polygon fill="white" stroke="#666666" points="160,-74 89,-74 89,-55 160,-55 160,-74"/>
<text text-anchor="middle" x="124.5" y="-62" font-family="Helvetica,sans-Serif" font-size="10.00">src/bst/bst.h</text>
</a>
</g>
</g>
<!-- Node1&#45;&gt;Node3 -->
<g id="edge2" class="edge">
<title>Node1&#45;&gt;Node3</title>
<path fill="none" stroke="#63b8ff" d="M290.25,-106.74C251.05,-96.99 196.15,-83.33 160.45,-74.45"/>
<polygon fill="#63b8ff" stroke="#63b8ff" points="289.35,-110.13 299.9,-109.14 291.04,-103.33 289.35,-110.13"/>
</g>
<!-- Node4 -->
<g id="node4" class="node">
<title>Node4</title>
<g id="a_node4"><a xlink:href="test__bst_8c.html" target="_top" xlink:title=" ">
<polygon fill="white" stroke="#666666" points="228.5,-19 148.5,-19 148.5,0 228.5,0 228.5,-19"/>
<text text-anchor="middle" x="188.5" y="-7" font-family="Helvetica,sans-Serif" font-size="10.00">test/test_bst.c</text>
</a>
</g>
</g>
<!-- Node1&#45;&gt;Node4 -->
<g id="edge11" class="edge">
<title>Node1&#45;&gt;Node4</title>
<path fill="none" stroke="#63b8ff" d="M263.65,-106.31C243.19,-99.73 222.5,-89.6 207.5,-74 192.82,-58.74 189.43,-32.61 188.68,-19.12"/>
<polygon fill="#63b8ff" stroke="#63b8ff" points="262.6,-109.64 273.18,-109.1 264.56,-102.93 262.6,-109.64"/>
</g>
<!-- Node5 -->
<g id="node5" class="node">
<title>Node5</title>
<g id="a_node5"><a xlink:href="hashmap_8c.html" target="_top" xlink:title=" ">
<polygon fill="white" stroke="#666666" points="340.5,-74 216.5,-74 216.5,-55 340.5,-55 340.5,-74"/>
<text text-anchor="middle" x="278.5" y="-62" font-family="Helvetica,sans-Serif" font-size="10.00">src/hashmap/hashmap.c</text>
</a>
</g>
</g>
<!-- Node1&#45;&gt;Node5 -->
<g id="edge4" class="edge">
<title>Node1&#45;&gt;Node5</title>
<path fill="none" stroke="#63b8ff" d="M319.23,-102.09C309.04,-92.94 296.76,-81.9 288.36,-74.36"/>
<polygon fill="#63b8ff" stroke="#63b8ff" points="316.59,-104.42 326.37,-108.5 321.27,-99.21 316.59,-104.42"/>
</g>
<!-- Node6 -->
<g id="node6" class="node">
<title>Node6</title>
<g id="a_node6"><a xlink:href="hashmap_8h.html" target="_top" xlink:title=" ">
<polygon fill="white" stroke="#666666" points="578.5,-74 454.5,-74 454.5,-55 578.5,-55 578.5,-74"/>
<text text-anchor="middle" x="516.5" y="-62" font-family="Helvetica,sans-Serif" font-size="10.00">src/hashmap/hashmap.h</text>
</a>
</g>
</g>
<!-- Node1&#45;&gt;Node6 -->
<g id="edge5" class="edge">
<title>Node1&#45;&gt;Node6</title>
<path fill="none" stroke="#63b8ff" d="M378.48,-106.36C411.33,-96.64 456.68,-83.21 486.29,-74.45"/>
<polygon fill="#63b8ff" stroke="#63b8ff" points="377.91,-102.88 369.32,-109.08 379.9,-109.6 377.91,-102.88"/>
</g>
<!-- Node7 -->
<g id="node7" class="node">
<title>Node7</title>
<g id="a_node7"><a xlink:href="test__hashmap_8c.html" target="_top" xlink:title=" ">
<polygon fill="white" stroke="#666666" points="662.5,-19 556.5,-19 556.5,0 662.5,0 662.5,-19"/>
<text text-anchor="middle" x="609.5" y="-7" font-family="Helvetica,sans-Serif" font-size="10.00">test/test_hashmap.c</text>
</a>
</g>
</g>
<!-- Node1&#45;&gt;Node7 -->
<g id="edge12" class="edge">
<title>Node1&#45;&gt;Node7</title>
<path fill="none" stroke="#63b8ff" d="M413.23,-114C509.65,-107.48 665.94,-93.96 683.5,-74 702.73,-52.14 662.72,-30.99 634.38,-19.46"/>
<polygon fill="#63b8ff" stroke="#63b8ff" points="413.04,-110.5 403.29,-114.66 413.5,-117.49 413.04,-110.5"/>
</g>
<!-- Node8 -->
<g id="node8" class="node">
<title>Node8</title>
<g id="a_node8"><a xlink:href="sort_8c.html" target="_top" xlink:title=" ">
<polygon fill="white" stroke="#666666" points="674,-74 597,-74 597,-55 674,-55 674,-74"/>
<text text-anchor="middle" x="635.5" y="-62" font-family="Helvetica,sans-Serif" font-size="10.00">src/sort/sort.c</text>
</a>
</g>
</g>
<!-- Node1&#45;&gt;Node8 -->
<g id="edge7" class="edge">
<title>Node1&#45;&gt;Node8</title>
<path fill="none" stroke="#63b8ff" d="M399.15,-107.54C458.49,-96.98 546.4,-81.35 596.6,-72.42"/>
<polygon fill="#63b8ff" stroke="#63b8ff" points="398.77,-104.05 389.54,-109.24 400,-110.94 398.77,-104.05"/>
</g>
<!-- Node9 -->
<g id="node9" class="node">
<title>Node9</title>
<g id="a_node9"><a xlink:href="sort_8h.html" target="_top" xlink:title=" ">
<polygon fill="white" stroke="#666666" points="436,-74 359,-74 359,-55 436,-55 436,-74"/>
<text text-anchor="middle" x="397.5" y="-62" font-family="Helvetica,sans-Serif" font-size="10.00">src/sort/sort.h</text>
</a>
</g>
</g>
<!-- Node1&#45;&gt;Node9 -->
<g id="edge8" class="edge">
<title>Node1&#45;&gt;Node9</title>
<path fill="none" stroke="#63b8ff" d="M356.08,-102.09C366.44,-92.94 378.93,-81.9 387.47,-74.36"/>
<polygon fill="#63b8ff" stroke="#63b8ff" points="353.99,-99.26 348.81,-108.51 358.62,-104.51 353.99,-99.26"/>
</g>
<!-- Node3&#45;&gt;Node4 -->
<g id="edge3" class="edge">
<title>Node3&#45;&gt;Node4</title>
<path fill="none" stroke="#63b8ff" d="M143.98,-47.37C155.1,-38.16 168.6,-26.98 177.8,-19.36"/>
<polygon fill="#63b8ff" stroke="#63b8ff" points="141.99,-44.47 136.52,-53.54 146.46,-49.86 141.99,-44.47"/>
</g>
<!-- Node6&#45;&gt;Node7 -->
<g id="edge6" class="edge">
<title>Node6&#45;&gt;Node7</title>
<path fill="none" stroke="#63b8ff" d="M541.94,-49C558.58,-39.52 579.79,-27.43 593.96,-19.36"/>
<polygon fill="#63b8ff" stroke="#63b8ff" points="540.55,-45.77 533.59,-53.76 544.01,-51.85 540.55,-45.77"/>
</g>
<!-- Node9&#45;&gt;Node4 -->
<g id="edge9" class="edge">
<title>Node9&#45;&gt;Node4</title>
<path fill="none" stroke="#63b8ff" d="M351.14,-51.74C312.68,-41.99 258.8,-28.33 223.78,-19.45"/>
<polygon fill="#63b8ff" stroke="#63b8ff" points="350.03,-55.07 360.58,-54.14 351.75,-48.29 350.03,-55.07"/>
</g>
<!-- Node10 -->
<g id="node10" class="node">
<title>Node10</title>
<g id="a_node10"><a xlink:href="test__sort_8c.html" target="_top" xlink:title=" ">
<polygon fill="white" stroke="#666666" points="439,-19 356,-19 356,0 439,0 439,-19"/>
<text text-anchor="middle" x="397.5" y="-7" font-family="Helvetica,sans-Serif" font-size="10.00">test/test_sort.c</text>
</a>
</g>
</g>
<!-- Node9&#45;&gt;Node10 -->
<g id="edge10" class="edge">
<title>Node9&#45;&gt;Node10</title>
<path fill="none" stroke="#63b8ff" d="M397.5,-43.35C397.5,-35.1 397.5,-25.97 397.5,-19.44"/>
<polygon fill="#63b8ff" stroke="#63b8ff" points="394,-43.23 397.5,-53.23 401,-43.23 394,-43.23"/>
</g>
</g>
</svg>
