<?xml version="1.0" encoding="UTF-8" standalone="no"?>
<!DOCTYPE svg PUBLIC "-//W3C//DTD SVG 1.1//EN"
 "http://www.w3.org/Graphics/SVG/1.1/DTD/svg11.dtd">
<!-- Generated by graphviz version 7.1.0 (0)
 -->
<!-- Title: src/header&#45;only/memory.h Pages: 1 -->
<svg width="837pt" height="137pt"
 viewBox="0.00 0.00 836.50 137.00" xmlns="http://www.w3.org/2000/svg" xmlns:xlink="http://www.w3.org/1999/xlink">
<g id="graph0" class="graph" transform="scale(1 1) rotate(0) translate(4 133)">
<title>src/header&#45;only/memory.h</title>
<!-- Node1 -->
<g id="node1" class="node">
<title>Node1</title>
<g id="a_node1"><a xlink:title=" ">
<polygon fill="#999999" stroke="#666666" points="438.5,-129 310.5,-129 310.5,-110 438.5,-110 438.5,-129"/>
<text text-anchor="middle" x="374.5" y="-117" font-family="Helvetica,sans-Serif" font-size="10.00">src/header&#45;only/memory.h</text>
</a>
</g>
</g>
<!-- Node2 -->
<g id="node2" class="node">
<title>Node2</title>
<g id="a_node2"><a xlink:href="bst_8c.html" target="_top" xlink:title=" ">
<polygon fill="white" stroke="#666666" points="71,-74 0,-74 0,-55 71,-55 71,-74"/>
<text text-anchor="middle" x="35.5" y="-62" font-family="Helvetica,sans-Serif" font-size="10.00">src/bst/bst.c</text>
</a>
</g>
</g>
<!-- Node1&#45;&gt;Node2 -->
<g id="edge1" class="edge">
<title>Node1&#45;&gt;Node2</title>
<path fill="none" stroke="#63b8ff" d="M303.06,-107.82C244.54,-98.99 159.61,-86 85.5,-74 80.89,-73.25 76.05,-72.45 71.27,-71.65"/>
<polygon fill="#63b8ff" stroke="#63b8ff" points="302.5,-111.27 312.91,-109.3 303.54,-104.35 302.5,-111.27"/>
</g>
<!-- Node3 -->
<g id="node3" class="node">
<title>Node3</title>
<g id="a_node3"><a xlink:href="bst_8h.html" target="_top" xlink:title=" ">
<polygon fill="white" stroke="#666666" points="199,-74 128,-74 128,-55 199,-55 199,-74"/>
<text text-anchor="middle" x="163.5" y="-62" font-family="Helvetica,sans-Serif" font-size="10.00">src/bst/bst.h</text>
</a>
</g>
</g>
<!-- Node1&#45;&gt;Node3 -->
<g id="edge2" class="edge">
<title>Node1&#45;&gt;Node3</title>
<path fill="none" stroke="#63b8ff" d="M327.7,-106.74C288.87,-96.99 234.47,-83.33 199.12,-74.45"/>
<polygon fill="#63b8ff" stroke="#63b8ff" points="326.69,-110.1 337.24,-109.14 328.39,-103.31 326.69,-110.1"/>
</g>
<!-- Node4 -->
<g id="node4" class="node">
<title>Node4</title>
<g id="a_node4"><a xlink:href="test__bst_8c.html" target="_top" xlink:title=" ">
<polygon fill="white" stroke="#666666" points="195.5,-19 115.5,-19 115.5,0 195.5,0 195.5,-19"/>
<text text-anchor="middle" x="155.5" y="-7" font-family="Helvetica,sans-Serif" font-size="10.00">test/test_bst.c</text>
</a>
</g>
</g>
<!-- Node1&#45;&gt;Node4 -->
<g id="edge13" class="edge">
<title>Node1&#45;&gt;Node4</title>
<path fill="none" stroke="#63b8ff" d="M298.78,-115.8C231.78,-111.62 141.22,-101 118.5,-74 103.72,-56.42 128.01,-32.17 143.74,-19.32"/>
<polygon fill="#63b8ff" stroke="#63b8ff" points="298.45,-119.28 308.64,-116.37 298.86,-112.3 298.45,-119.28"/>
</g>
<!-- Node5 -->
<g id="node5" class="node">
<title>Node5</title>
<g id="a_node5"><a xlink:href="hashmap_8c.html" target="_top" xlink:title=" ">
<polygon fill="white" stroke="#666666" points="436.5,-74 312.5,-74 312.5,-55 436.5,-55 436.5,-74"/>
<text text-anchor="middle" x="374.5" y="-62" font-family="Helvetica,sans-Serif" font-size="10.00">src/hashmap/hashmap.c</text>
</a>
</g>
</g>
<!-- Node1&#45;&gt;Node5 -->
<g id="edge4" class="edge">
<title>Node1&#45;&gt;Node5</title>
<path fill="none" stroke="#63b8ff" d="M374.5,-98.35C374.5,-90.1 374.5,-80.97 374.5,-74.44"/>
<polygon fill="#63b8ff" stroke="#63b8ff" points="371,-98.23 374.5,-108.23 378,-98.23 371,-98.23"/>
</g>
<!-- Node6 -->
<g id="node6" class="node">
<title>Node6</title>
<g id="a_node6"><a xlink:href="hashmap_8h.html" target="_top" xlink:title=" ">
<polygon fill="white" stroke="#666666" points="616.5,-74 492.5,-74 492.5,-55 616.5,-55 616.5,-74"/>
<text text-anchor="middle" x="554.5" y="-62" font-family="Helvetica,sans-Serif" font-size="10.00">src/hashmap/hashmap.h</text>
</a>
</g>
</g>
<!-- Node1&#45;&gt;Node6 -->
<g id="edge5" class="edge">
<title>Node1&#45;&gt;Node6</title>
<path fill="none" stroke="#63b8ff" d="M415.71,-106.36C448.75,-96.64 494.34,-83.21 524.12,-74.45"/>
<polygon fill="#63b8ff" stroke="#63b8ff" points="415.09,-102.9 406.49,-109.08 417.07,-109.61 415.09,-102.9"/>
</g>
<!-- Node7 -->
<g id="node7" class="node">
<title>Node7</title>
<g id="a_node7"><a xlink:href="test__hashmap_8c.html" target="_top" xlink:title=" ">
<polygon fill="white" stroke="#666666" points="569.5,-19 463.5,-19 463.5,0 569.5,0 569.5,-19"/>
<text text-anchor="middle" x="516.5" y="-7" font-family="Helvetica,sans-Serif" font-size="10.00">test/test_hashmap.c</text>
</a>
</g>
</g>
<!-- Node1&#45;&gt;Node7 -->
<g id="edge14" class="edge">
<title>Node1&#45;&gt;Node7</title>
<path fill="none" stroke="#63b8ff" d="M400.33,-103.76C414.11,-95.54 431.14,-84.8 445.5,-74 469.29,-56.11 494.73,-31.98 507.73,-19.24"/>
<polygon fill="#63b8ff" stroke="#63b8ff" points="398.68,-100.67 391.82,-108.75 402.22,-106.7 398.68,-100.67"/>
</g>
<!-- Node8 -->
<g id="node8" class="node">
<title>Node8</title>
<g id="a_node8"><a xlink:href="sort_8c.html" target="_top" xlink:title=" ">
<polygon fill="white" stroke="#666666" points="712,-74 635,-74 635,-55 712,-55 712,-74"/>
<text text-anchor="middle" x="673.5" y="-62" font-family="Helvetica,sans-Serif" font-size="10.00">src/sort/sort.c</text>
</a>
</g>
</g>
<!-- Node1&#45;&gt;Node8 -->
<g id="edge7" class="edge">
<title>Node1&#45;&gt;Node8</title>
<path fill="none" stroke="#63b8ff" d="M436.39,-107.53C496.11,-96.94 584.64,-81.25 634.92,-72.34"/>
<polygon fill="#63b8ff" stroke="#63b8ff" points="435.95,-104.05 426.71,-109.25 437.17,-110.95 435.95,-104.05"/>
</g>
<!-- Node9 -->
<g id="node9" class="node">
<title>Node9</title>
<g id="a_node9"><a xlink:href="sort_8h.html" target="_top" xlink:title=" ">
<polygon fill="white" stroke="#666666" points="294,-74 217,-74 217,-55 294,-55 294,-74"/>
<text text-anchor="middle" x="255.5" y="-62" font-family="Helvetica,sans-Serif" font-size="10.00">src/sort/sort.h</text>
</a>
</g>
</g>
<!-- Node1&#45;&gt;Node9 -->
<g id="edge8" class="edge">
<title>Node1&#45;&gt;Node9</title>
<path fill="none" stroke="#63b8ff" d="M344.03,-104.93C322.45,-95.32 294.12,-82.7 275.39,-74.36"/>
<polygon fill="#63b8ff" stroke="#63b8ff" points="342.37,-108.02 352.93,-108.89 345.22,-101.63 342.37,-108.02"/>
</g>
<!-- Node12 -->
<g id="node12" class="node">
<title>Node12</title>
<g id="a_node12"><a xlink:href="vector_8c.html" target="_top" xlink:title=" ">
<polygon fill="white" stroke="#666666" points="828.5,-74 730.5,-74 730.5,-55 828.5,-55 828.5,-74"/>
<text text-anchor="middle" x="779.5" y="-62" font-family="Helvetica,sans-Serif" font-size="10.00">src/vector/vector.c</text>
</a>
</g>
</g>
<!-- Node1&#45;&gt;Node12 -->
<g id="edge12" class="edge">
<title>Node1&#45;&gt;Node12</title>
<path fill="none" stroke="#63b8ff" d="M450.21,-109.19C520.54,-100.44 628.17,-86.82 721.5,-74 724.32,-73.61 727.22,-73.21 730.15,-72.79"/>
<polygon fill="#63b8ff" stroke="#63b8ff" points="449.81,-105.71 440.32,-110.42 450.68,-112.66 449.81,-105.71"/>
</g>
<!-- Node3&#45;&gt;Node4 -->
<g id="edge3" class="edge">
<title>Node3&#45;&gt;Node4</title>
<path fill="none" stroke="#63b8ff" d="M160.5,-43.64C159.25,-35.31 157.85,-26.05 156.85,-19.44"/>
<polygon fill="#63b8ff" stroke="#63b8ff" points="157,-43.89 161.95,-53.25 163.92,-42.84 157,-43.89"/>
</g>
<!-- Node6&#45;&gt;Node7 -->
<g id="edge6" class="edge">
<title>Node6&#45;&gt;Node7</title>
<path fill="none" stroke="#63b8ff" d="M541.7,-45.65C535.38,-36.84 528.04,-26.59 522.91,-19.44"/>
<polygon fill="#63b8ff" stroke="#63b8ff" points="538.67,-47.43 547.34,-53.52 544.36,-43.35 538.67,-47.43"/>
</g>
<!-- Node9&#45;&gt;Node4 -->
<g id="edge9" class="edge">
<title>Node9&#45;&gt;Node4</title>
<path fill="none" stroke="#63b8ff" d="M228.39,-49.13C210.46,-39.63 187.52,-27.47 172.21,-19.36"/>
<polygon fill="#63b8ff" stroke="#63b8ff" points="226.72,-52.21 237.2,-53.8 230,-46.02 226.72,-52.21"/>
</g>
<!-- Node10 -->
<g id="node10" class="node">
<title>Node10</title>
<g id="a_node10"><a xlink:href="test__sort_8c.html" target="_top" xlink:title=" ">
<polygon fill="white" stroke="#666666" points="297,-19 214,-19 214,0 297,0 297,-19"/>
<text text-anchor="middle" x="255.5" y="-7" font-family="Helvetica,sans-Serif" font-size="10.00">test/test_sort.c</text>
</a>
</g>
</g>
<!-- Node9&#45;&gt;Node10 -->
<g id="edge10" class="edge">
<title>Node9&#45;&gt;Node10</title>
<path fill="none" stroke="#63b8ff" d="M255.5,-43.35C255.5,-35.1 255.5,-25.97 255.5,-19.44"/>
<polygon fill="#63b8ff" stroke="#63b8ff" points="252,-43.23 255.5,-53.23 259,-43.23 252,-43.23"/>
</g>
<!-- Node11 -->
<g id="node11" class="node">
<title>Node11</title>
<g id="a_node11"><a xlink:href="test__vector_8c.html" target="_top" xlink:title=" ">
<polygon fill="white" stroke="#666666" points="407.5,-19 315.5,-19 315.5,0 407.5,0 407.5,-19"/>
<text text-anchor="middle" x="361.5" y="-7" font-family="Helvetica,sans-Serif" font-size="10.00">test/test_vector.c</text>
</a>
</g>
</g>
<!-- Node9&#45;&gt;Node11 -->
<g id="edge11" class="edge">
<title>Node9&#45;&gt;Node11</title>
<path fill="none" stroke="#63b8ff" d="M283.7,-49.4C302.78,-39.86 327.4,-27.55 343.78,-19.36"/>
<polygon fill="#63b8ff" stroke="#63b8ff" points="282.21,-46.23 274.84,-53.83 285.34,-52.49 282.21,-46.23"/>
</g>
</g>
</svg>
