<?xml version="1.0" encoding="UTF-8" standalone="no"?>
<!DOCTYPE svg PUBLIC "-//W3C//DTD SVG 1.1//EN"
 "http://www.w3.org/Graphics/SVG/1.1/DTD/svg11.dtd">
<!-- Generated by graphviz version 7.1.0 (0)
 -->
<!-- Title: src/sort/sort.h Pages: 1 -->
<svg width="300pt" height="82pt"
 viewBox="0.00 0.00 300.00 82.00" xmlns="http://www.w3.org/2000/svg" xmlns:xlink="http://www.w3.org/1999/xlink">
<g id="graph0" class="graph" transform="scale(1 1) rotate(0) translate(4 78)">
<title>src/sort/sort.h</title>
<!-- Node1 -->
<g id="node1" class="node">
<title>Node1</title>
<g id="a_node1"><a xlink:title=" ">
<polygon fill="#999999" stroke="#666666" points="178.5,-74 101.5,-74 101.5,-55 178.5,-55 178.5,-74"/>
<text text-anchor="middle" x="140" y="-62" font-family="Helvetica,sans-Serif" font-size="10.00">src/sort/sort.h</text>
</a>
</g>
</g>
<!-- Node2 -->
<g id="node2" class="node">
<title>Node2</title>
<g id="a_node2"><a xlink:href="test__bst_8c.html" target="_top" xlink:title=" ">
<polygon fill="white" stroke="#666666" points="80,-19 0,-19 0,0 80,0 80,-19"/>
<text text-anchor="middle" x="40" y="-7" font-family="Helvetica,sans-Serif" font-size="10.00">test/test_bst.c</text>
</a>
</g>
</g>
<!-- Node1&#45;&gt;Node2 -->
<g id="edge1" class="edge">
<title>Node1&#45;&gt;Node2</title>
<path fill="none" stroke="#63b8ff" d="M112.89,-49.13C94.96,-39.63 72.02,-27.47 56.71,-19.36"/>
<polygon fill="#63b8ff" stroke="#63b8ff" points="111.22,-52.21 121.7,-53.8 114.5,-46.02 111.22,-52.21"/>
</g>
<!-- Node3 -->
<g id="node3" class="node">
<title>Node3</title>
<g id="a_node3"><a xlink:href="test__sort_8c.html" target="_top" xlink:title=" ">
<polygon fill="white" stroke="#666666" points="181.5,-19 98.5,-19 98.5,0 181.5,0 181.5,-19"/>
<text text-anchor="middle" x="140" y="-7" font-family="Helvetica,sans-Serif" font-size="10.00">test/test_sort.c</text>
</a>
</g>
</g>
<!-- Node1&#45;&gt;Node3 -->
<g id="edge2" class="edge">
<title>Node1&#45;&gt;Node3</title>
<path fill="none" stroke="#63b8ff" d="M140,-43.35C140,-35.1 140,-25.97 140,-19.44"/>
<polygon fill="#63b8ff" stroke="#63b8ff" points="136.5,-43.23 140,-53.23 143.5,-43.23 136.5,-43.23"/>
</g>
<!-- Node4 -->
<g id="node4" class="node">
<title>Node4</title>
<g id="a_node4"><a xlink:href="test__vector_8c.html" target="_top" xlink:title=" ">
<polygon fill="white" stroke="#666666" points="292,-19 200,-19 200,0 292,0 292,-19"/>
<text text-anchor="middle" x="246" y="-7" font-family="Helvetica,sans-Serif" font-size="10.00">test/test_vector.c</text>
</a>
</g>
</g>
<!-- Node1&#45;&gt;Node4 -->
<g id="edge3" class="edge">
<title>Node1&#45;&gt;Node4</title>
<path fill="none" stroke="#63b8ff" d="M168.2,-49.4C187.28,-39.86 211.9,-27.55 228.28,-19.36"/>
<polygon fill="#63b8ff" stroke="#63b8ff" points="166.71,-46.23 159.34,-53.83 169.84,-52.49 166.71,-46.23"/>
</g>
</g>
</svg>
