<?xml version="1.0" encoding="UTF-8" standalone="no"?>
<!DOCTYPE svg PUBLIC "-//W3C//DTD SVG 1.1//EN"
 "http://www.w3.org/Graphics/SVG/1.1/DTD/svg11.dtd">
<!-- Generated by graphviz version 7.1.0 (0)
 -->
<!-- Title: src/sort/sort.c Pages: 1 -->
<svg width="492pt" height="137pt"
 viewBox="0.00 0.00 492.00 137.00" xmlns="http://www.w3.org/2000/svg" xmlns:xlink="http://www.w3.org/1999/xlink">
<g id="graph0" class="graph" transform="scale(1 1) rotate(0) translate(4 133)">
<title>src/sort/sort.c</title>
<!-- Node1 -->
<g id="node1" class="node">
<title>Node1</title>
<g id="a_node1"><a xlink:title=" ">
<polygon fill="#999999" stroke="#666666" points="262.5,-129 185.5,-129 185.5,-110 262.5,-110 262.5,-129"/>
<text text-anchor="middle" x="224" y="-117" font-family="Helvetica,sans-Serif" font-size="10.00">src/sort/sort.c</text>
</a>
</g>
</g>
<!-- Node2 -->
<g id="node2" class="node">
<title>Node2</title>
<g id="a_node2"><a xlink:title=" ">
<polygon fill="#e0e0e0" stroke="#999999" points="52,-74 0,-74 0,-55 52,-55 52,-74"/>
<text text-anchor="middle" x="26" y="-62" font-family="Helvetica,sans-Serif" font-size="10.00">assert.h</text>
</a>
</g>
</g>
<!-- Node1&#45;&gt;Node2 -->
<g id="edge1" class="edge">
<title>Node1&#45;&gt;Node2</title>
<path fill="none" stroke="#63b8ff" d="M190.41,-109.51C155.12,-100.06 99.74,-85.24 63.16,-75.45"/>
<polygon fill="#63b8ff" stroke="#63b8ff" points="64.48,-72.18 53.91,-72.97 62.67,-78.94 64.48,-72.18"/>
</g>
<!-- Node3 -->
<g id="node3" class="node">
<title>Node3</title>
<g id="a_node3"><a xlink:href="memory_8h.html" target="_top" xlink:title=" ">
<polygon fill="white" stroke="#666666" points="167.5,-74 108.5,-74 108.5,-55 167.5,-55 167.5,-74"/>
<text text-anchor="middle" x="138" y="-62" font-family="Helvetica,sans-Serif" font-size="10.00">memory.h</text>
</a>
</g>
</g>
<!-- Node1&#45;&gt;Node3 -->
<g id="edge2" class="edge">
<title>Node1&#45;&gt;Node3</title>
<path fill="none" stroke="#63b8ff" d="M209.41,-109.51C196.48,-101.54 177.36,-89.75 162.15,-80.38"/>
<polygon fill="#63b8ff" stroke="#63b8ff" points="164.01,-77.42 153.66,-75.15 160.34,-83.38 164.01,-77.42"/>
</g>
<!-- Node4 -->
<g id="node4" class="node">
<title>Node4</title>
<g id="a_node4"><a xlink:title=" ">
<polygon fill="#e0e0e0" stroke="#999999" points="129,-19 77,-19 77,0 129,0 129,-19"/>
<text text-anchor="middle" x="103" y="-7" font-family="Helvetica,sans-Serif" font-size="10.00">stddef.h</text>
</a>
</g>
</g>
<!-- Node1&#45;&gt;Node4 -->
<g id="edge7" class="edge">
<title>Node1&#45;&gt;Node4</title>
<path fill="none" stroke="#63b8ff" d="M185.04,-116.09C156.06,-112.02 118.32,-101.39 99,-74 90.04,-61.29 92.14,-43.36 95.85,-29.79"/>
<polygon fill="#63b8ff" stroke="#63b8ff" points="99.05,-31.26 98.82,-20.67 92.39,-29.1 99.05,-31.26"/>
</g>
<!-- Node5 -->
<g id="node5" class="node">
<title>Node5</title>
<g id="a_node5"><a xlink:title=" ">
<polygon fill="#e0e0e0" stroke="#999999" points="208.5,-19 159.5,-19 159.5,0 208.5,0 208.5,-19"/>
<text text-anchor="middle" x="184" y="-7" font-family="Helvetica,sans-Serif" font-size="10.00">stdint.h</text>
</a>
</g>
</g>
<!-- Node1&#45;&gt;Node5 -->
<g id="edge8" class="edge">
<title>Node1&#45;&gt;Node5</title>
<path fill="none" stroke="#63b8ff" d="M220.73,-109.66C214.31,-92.34 199.94,-53.55 191.2,-29.95"/>
<polygon fill="#63b8ff" stroke="#63b8ff" points="194.6,-29.04 187.84,-20.88 188.04,-31.47 194.6,-29.04"/>
</g>
<!-- Node6 -->
<g id="node6" class="node">
<title>Node6</title>
<g id="a_node6"><a xlink:title=" ">
<polygon fill="#e0e0e0" stroke="#999999" points="281.5,-74 224.5,-74 224.5,-55 281.5,-55 281.5,-74"/>
<text text-anchor="middle" x="253" y="-62" font-family="Helvetica,sans-Serif" font-size="10.00">pthread.h</text>
</a>
</g>
</g>
<!-- Node1&#45;&gt;Node6 -->
<g id="edge5" class="edge">
<title>Node1&#45;&gt;Node6</title>
<path fill="none" stroke="#63b8ff" d="M228.79,-109.75C232.54,-102.88 237.91,-93.08 242.63,-84.45"/>
<polygon fill="#63b8ff" stroke="#63b8ff" points="245.65,-86.22 247.38,-75.77 239.51,-82.86 245.65,-86.22"/>
</g>
<!-- Node7 -->
<g id="node7" class="node">
<title>Node7</title>
<g id="a_node7"><a xlink:title=" ">
<polygon fill="#e0e0e0" stroke="#999999" points="356,-74 300,-74 300,-55 356,-55 356,-74"/>
<text text-anchor="middle" x="328" y="-62" font-family="Helvetica,sans-Serif" font-size="10.00">stdbool.h</text>
</a>
</g>
</g>
<!-- Node1&#45;&gt;Node7 -->
<g id="edge6" class="edge">
<title>Node1&#45;&gt;Node7</title>
<path fill="none" stroke="#63b8ff" d="M241.64,-109.51C257.73,-101.31 281.75,-89.07 300.37,-79.58"/>
<polygon fill="#63b8ff" stroke="#63b8ff" points="301.95,-82.7 309.27,-75.05 298.77,-76.47 301.95,-82.7"/>
</g>
<!-- Node8 -->
<g id="node8" class="node">
<title>Node8</title>
<g id="a_node8"><a xlink:title=" ">
<polygon fill="#e0e0e0" stroke="#999999" points="422,-74 374,-74 374,-55 422,-55 422,-74"/>
<text text-anchor="middle" x="398" y="-62" font-family="Helvetica,sans-Serif" font-size="10.00">stdlib.h</text>
</a>
</g>
</g>
<!-- Node1&#45;&gt;Node8 -->
<g id="edge9" class="edge">
<title>Node1&#45;&gt;Node8</title>
<path fill="none" stroke="#63b8ff" d="M253.52,-109.51C283.79,-100.29 330.86,-85.95 362.99,-76.16"/>
<polygon fill="#63b8ff" stroke="#63b8ff" points="363.69,-79.61 372.23,-73.35 361.65,-72.91 363.69,-79.61"/>
</g>
<!-- Node9 -->
<g id="node9" class="node">
<title>Node9</title>
<g id="a_node9"><a xlink:title=" ">
<polygon fill="#e0e0e0" stroke="#999999" points="484,-74 440,-74 440,-55 484,-55 484,-74"/>
<text text-anchor="middle" x="462" y="-62" font-family="Helvetica,sans-Serif" font-size="10.00">time.h</text>
</a>
</g>
</g>
<!-- Node1&#45;&gt;Node9 -->
<g id="edge10" class="edge">
<title>Node1&#45;&gt;Node9</title>
<path fill="none" stroke="#63b8ff" d="M262.68,-110.86C302.09,-102.92 365.23,-89.8 428.68,-74.46"/>
<polygon fill="#63b8ff" stroke="#63b8ff" points="429.33,-77.91 438.22,-72.14 427.67,-71.1 429.33,-77.91"/>
</g>
<!-- Node3&#45;&gt;Node4 -->
<g id="edge3" class="edge">
<title>Node3&#45;&gt;Node4</title>
<path fill="none" stroke="#63b8ff" d="M132.22,-54.75C127.59,-47.73 120.93,-37.64 115.13,-28.87"/>
<polygon fill="#63b8ff" stroke="#63b8ff" points="118.17,-27.12 109.74,-20.71 112.33,-30.98 118.17,-27.12"/>
</g>
<!-- Node3&#45;&gt;Node5 -->
<g id="edge4" class="edge">
<title>Node3&#45;&gt;Node5</title>
<path fill="none" stroke="#63b8ff" d="M145.6,-54.75C151.88,-47.5 161.01,-36.98 168.8,-28.02"/>
<polygon fill="#63b8ff" stroke="#63b8ff" points="171.34,-30.43 175.25,-20.59 166.05,-25.84 171.34,-30.43"/>
</g>
</g>
</svg>
