<?xml version="1.0" encoding="UTF-8" standalone="no"?>
<!DOCTYPE svg PUBLIC "-//W3C//DTD SVG 1.1//EN"
 "http://www.w3.org/Graphics/SVG/1.1/DTD/svg11.dtd">
<!-- Generated by graphviz version 7.1.0 (0)
 -->
<!-- Title: src/sort/sort.c Pages: 1 -->
<svg width="416pt" height="137pt"
 viewBox="0.00 0.00 416.00 137.00" xmlns="http://www.w3.org/2000/svg" xmlns:xlink="http://www.w3.org/1999/xlink">
<g id="graph0" class="graph" transform="scale(1 1) rotate(0) translate(4 133)">
<title>src/sort/sort.c</title>
<!-- Node1 -->
<g id="node1" class="node">
<title>Node1</title>
<g id="a_node1"><a xlink:title=" ">
<polygon fill="#999999" stroke="#666666" points="234.5,-129 157.5,-129 157.5,-110 234.5,-110 234.5,-129"/>
<text text-anchor="middle" x="196" y="-117" font-family="Helvetica,sans-Serif" font-size="10.00">src/sort/sort.c</text>
</a>
</g>
</g>
<!-- Node2 -->
<g id="node2" class="node">
<title>Node2</title>
<g id="a_node2"><a xlink:title=" ">
<polygon fill="#e0e0e0" stroke="#999999" points="52,-74 0,-74 0,-55 52,-55 52,-74"/>
<text text-anchor="middle" x="26" y="-62" font-family="Helvetica,sans-Serif" font-size="10.00">assert.h</text>
</a>
</g>
</g>
<!-- Node1&#45;&gt;Node2 -->
<g id="edge1" class="edge">
<title>Node1&#45;&gt;Node2</title>
<path fill="none" stroke="#63b8ff" d="M167.16,-109.51C138.56,-100.59 94.6,-86.89 63.35,-77.14"/>
<polygon fill="#63b8ff" stroke="#63b8ff" points="64.49,-73.83 53.9,-74.2 62.41,-80.52 64.49,-73.83"/>
</g>
<!-- Node3 -->
<g id="node3" class="node">
<title>Node3</title>
<g id="a_node3"><a xlink:href="memory_8h.html" target="_top" xlink:title=" ">
<polygon fill="white" stroke="#666666" points="167.5,-74 108.5,-74 108.5,-55 167.5,-55 167.5,-74"/>
<text text-anchor="middle" x="138" y="-62" font-family="Helvetica,sans-Serif" font-size="10.00">memory.h</text>
</a>
</g>
</g>
<!-- Node1&#45;&gt;Node3 -->
<g id="edge2" class="edge">
<title>Node1&#45;&gt;Node3</title>
<path fill="none" stroke="#63b8ff" d="M186.16,-109.51C177.95,-102 166.02,-91.1 156.09,-82.03"/>
<polygon fill="#63b8ff" stroke="#63b8ff" points="158.55,-79.54 148.81,-75.38 153.83,-84.71 158.55,-79.54"/>
</g>
<!-- Node4 -->
<g id="node4" class="node">
<title>Node4</title>
<g id="a_node4"><a xlink:title=" ">
<polygon fill="#e0e0e0" stroke="#999999" points="129,-19 77,-19 77,0 129,0 129,-19"/>
<text text-anchor="middle" x="103" y="-7" font-family="Helvetica,sans-Serif" font-size="10.00">stddef.h</text>
</a>
</g>
</g>
<!-- Node1&#45;&gt;Node4 -->
<g id="edge6" class="edge">
<title>Node1&#45;&gt;Node4</title>
<path fill="none" stroke="#63b8ff" d="M157.1,-111.22C136.05,-105.09 111.8,-93.96 99,-74 90.69,-61.04 92.61,-43.38 96.09,-29.97"/>
<polygon fill="#63b8ff" stroke="#63b8ff" points="99.39,-31.14 99.02,-20.55 92.71,-29.06 99.39,-31.14"/>
</g>
<!-- Node5 -->
<g id="node5" class="node">
<title>Node5</title>
<g id="a_node5"><a xlink:title=" ">
<polygon fill="#e0e0e0" stroke="#999999" points="208.5,-19 159.5,-19 159.5,0 208.5,0 208.5,-19"/>
<text text-anchor="middle" x="184" y="-7" font-family="Helvetica,sans-Serif" font-size="10.00">stdint.h</text>
</a>
</g>
</g>
<!-- Node1&#45;&gt;Node5 -->
<g id="edge7" class="edge">
<title>Node1&#45;&gt;Node5</title>
<path fill="none" stroke="#63b8ff" d="M195.02,-109.66C193.11,-92.5 188.86,-54.26 186.23,-30.6"/>
<polygon fill="#63b8ff" stroke="#63b8ff" points="189.75,-30.52 185.16,-20.96 182.79,-31.29 189.75,-30.52"/>
</g>
<!-- Node6 -->
<g id="node6" class="node">
<title>Node6</title>
<g id="a_node6"><a xlink:title=" ">
<polygon fill="#e0e0e0" stroke="#999999" points="280,-74 224,-74 224,-55 280,-55 280,-74"/>
<text text-anchor="middle" x="252" y="-62" font-family="Helvetica,sans-Serif" font-size="10.00">stdbool.h</text>
</a>
</g>
</g>
<!-- Node1&#45;&gt;Node6 -->
<g id="edge5" class="edge">
<title>Node1&#45;&gt;Node6</title>
<path fill="none" stroke="#63b8ff" d="M205.5,-109.51C213.43,-102 224.95,-91.1 234.54,-82.03"/>
<polygon fill="#63b8ff" stroke="#63b8ff" points="236.68,-84.81 241.54,-75.4 231.87,-79.73 236.68,-84.81"/>
</g>
<!-- Node7 -->
<g id="node7" class="node">
<title>Node7</title>
<g id="a_node7"><a xlink:title=" ">
<polygon fill="#e0e0e0" stroke="#999999" points="346,-74 298,-74 298,-55 346,-55 346,-74"/>
<text text-anchor="middle" x="322" y="-62" font-family="Helvetica,sans-Serif" font-size="10.00">stdlib.h</text>
</a>
</g>
</g>
<!-- Node1&#45;&gt;Node7 -->
<g id="edge8" class="edge">
<title>Node1&#45;&gt;Node7</title>
<path fill="none" stroke="#63b8ff" d="M217.37,-109.51C237.41,-101.08 267.6,-88.38 290.41,-78.79"/>
<polygon fill="#63b8ff" stroke="#63b8ff" points="291.69,-82.05 299.55,-74.94 288.97,-75.6 291.69,-82.05"/>
</g>
<!-- Node8 -->
<g id="node8" class="node">
<title>Node8</title>
<g id="a_node8"><a xlink:title=" ">
<polygon fill="#e0e0e0" stroke="#999999" points="408,-74 364,-74 364,-55 408,-55 408,-74"/>
<text text-anchor="middle" x="386" y="-62" font-family="Helvetica,sans-Serif" font-size="10.00">time.h</text>
</a>
</g>
</g>
<!-- Node1&#45;&gt;Node8 -->
<g id="edge9" class="edge">
<title>Node1&#45;&gt;Node8</title>
<path fill="none" stroke="#63b8ff" d="M228.23,-109.51C262.86,-99.85 317.61,-84.58 352.66,-74.8"/>
<polygon fill="#63b8ff" stroke="#63b8ff" points="353.58,-78.18 362.28,-72.12 351.7,-71.43 353.58,-78.18"/>
</g>
<!-- Node3&#45;&gt;Node4 -->
<g id="edge3" class="edge">
<title>Node3&#45;&gt;Node4</title>
<path fill="none" stroke="#63b8ff" d="M132.22,-54.75C127.59,-47.73 120.93,-37.64 115.13,-28.87"/>
<polygon fill="#63b8ff" stroke="#63b8ff" points="118.17,-27.12 109.74,-20.71 112.33,-30.98 118.17,-27.12"/>
</g>
<!-- Node3&#45;&gt;Node5 -->
<g id="edge4" class="edge">
<title>Node3&#45;&gt;Node5</title>
<path fill="none" stroke="#63b8ff" d="M145.6,-54.75C151.88,-47.5 161.01,-36.98 168.8,-28.02"/>
<polygon fill="#63b8ff" stroke="#63b8ff" points="171.34,-30.43 175.25,-20.59 166.05,-25.84 171.34,-30.43"/>
</g>
</g>
</svg>
