<?xml version="1.0" encoding="UTF-8" standalone="no"?>
<!DOCTYPE svg PUBLIC "-//W3C//DTD SVG 1.1//EN"
 "http://www.w3.org/Graphics/SVG/1.1/DTD/svg11.dtd">
<!-- Generated by graphviz version 7.1.0 (0)
 -->
<!-- Title: src/header&#45;only/timing.h Pages: 1 -->
<svg width="208pt" height="137pt"
 viewBox="0.00 0.00 207.50 137.00" xmlns="http://www.w3.org/2000/svg" xmlns:xlink="http://www.w3.org/1999/xlink">
<g id="graph0" class="graph" transform="scale(1 1) rotate(0) translate(4 133)">
<title>src/header&#45;only/timing.h</title>
<!-- Node1 -->
<g id="node1" class="node">
<title>Node1</title>
<g id="a_node1"><a xlink:title=" ">
<polygon fill="#999999" stroke="#666666" points="121,-129 0,-129 0,-110 121,-110 121,-129"/>
<text text-anchor="middle" x="60.5" y="-117" font-family="Helvetica,sans-Serif" font-size="10.00">src/header&#45;only/timing.h</text>
</a>
</g>
</g>
<!-- Node2 -->
<g id="node2" class="node">
<title>Node2</title>
<g id="a_node2"><a xlink:title=" ">
<polygon fill="#e0e0e0" stroke="#999999" points="61.5,-19 15.5,-19 15.5,0 61.5,0 61.5,-19"/>
<text text-anchor="middle" x="38.5" y="-7" font-family="Helvetica,sans-Serif" font-size="10.00">stdio.h</text>
</a>
</g>
</g>
<!-- Node1&#45;&gt;Node2 -->
<g id="edge1" class="edge">
<title>Node1&#45;&gt;Node2</title>
<path fill="none" stroke="#63b8ff" d="M48.86,-109.73C39.19,-101.67 26.15,-88.74 20.5,-74 14.85,-59.27 20.49,-42.02 26.9,-29.22"/>
<polygon fill="#63b8ff" stroke="#63b8ff" points="29.89,-31.04 31.73,-20.61 23.78,-27.62 29.89,-31.04"/>
</g>
<!-- Node3 -->
<g id="node3" class="node">
<title>Node3</title>
<g id="a_node3"><a xlink:title=" ">
<polygon fill="#e0e0e0" stroke="#999999" points="91.5,-74 29.5,-74 29.5,-55 91.5,-55 91.5,-74"/>
<text text-anchor="middle" x="60.5" y="-62" font-family="Helvetica,sans-Serif" font-size="10.00">sys/time.h</text>
</a>
</g>
</g>
<!-- Node1&#45;&gt;Node3 -->
<g id="edge2" class="edge">
<title>Node1&#45;&gt;Node3</title>
<path fill="none" stroke="#63b8ff" d="M60.5,-109.75C60.5,-103.27 60.5,-94.16 60.5,-85.9"/>
<polygon fill="#63b8ff" stroke="#63b8ff" points="64,-85.96 60.5,-75.96 57,-85.96 64,-85.96"/>
</g>
<!-- Node4 -->
<g id="node4" class="node">
<title>Node4</title>
<g id="a_node4"><a xlink:href="decimal_8h.html" target="_top" xlink:title=" ">
<polygon fill="white" stroke="#666666" points="169,-74 110,-74 110,-55 169,-55 169,-74"/>
<text text-anchor="middle" x="139.5" y="-62" font-family="Helvetica,sans-Serif" font-size="10.00">decimal.h</text>
</a>
</g>
</g>
<!-- Node1&#45;&gt;Node4 -->
<g id="edge3" class="edge">
<title>Node1&#45;&gt;Node4</title>
<path fill="none" stroke="#63b8ff" d="M73.9,-109.51C85.66,-101.62 103.01,-89.98 116.91,-80.65"/>
<polygon fill="#63b8ff" stroke="#63b8ff" points="118.69,-83.68 125.04,-75.2 114.79,-77.87 118.69,-83.68"/>
</g>
<!-- Node4&#45;&gt;Node2 -->
<g id="edge6" class="edge">
<title>Node4&#45;&gt;Node2</title>
<path fill="none" stroke="#63b8ff" d="M122.37,-54.51C106.75,-46.31 83.42,-34.07 65.33,-24.58"/>
<polygon fill="#63b8ff" stroke="#63b8ff" points="67.2,-21.61 56.72,-20.06 63.95,-27.81 67.2,-21.61"/>
</g>
<!-- Node5 -->
<g id="node5" class="node">
<title>Node5</title>
<g id="a_node5"><a xlink:title=" ">
<polygon fill="#e0e0e0" stroke="#999999" points="129,-19 82,-19 82,0 129,0 129,-19"/>
<text text-anchor="middle" x="105.5" y="-7" font-family="Helvetica,sans-Serif" font-size="10.00">math.h</text>
</a>
</g>
</g>
<!-- Node4&#45;&gt;Node5 -->
<g id="edge4" class="edge">
<title>Node4&#45;&gt;Node5</title>
<path fill="none" stroke="#63b8ff" d="M133.89,-54.75C129.38,-47.73 122.91,-37.64 117.29,-28.87"/>
<polygon fill="#63b8ff" stroke="#63b8ff" points="120.4,-27.24 112.05,-20.72 114.51,-31.02 120.4,-27.24"/>
</g>
<!-- Node6 -->
<g id="node6" class="node">
<title>Node6</title>
<g id="a_node6"><a xlink:title=" ">
<polygon fill="#e0e0e0" stroke="#999999" points="199.5,-19 147.5,-19 147.5,0 199.5,0 199.5,-19"/>
<text text-anchor="middle" x="173.5" y="-7" font-family="Helvetica,sans-Serif" font-size="10.00">stddef.h</text>
</a>
</g>
</g>
<!-- Node4&#45;&gt;Node6 -->
<g id="edge5" class="edge">
<title>Node4&#45;&gt;Node6</title>
<path fill="none" stroke="#63b8ff" d="M145.11,-54.75C149.62,-47.73 156.09,-37.64 161.71,-28.87"/>
<polygon fill="#63b8ff" stroke="#63b8ff" points="164.49,-31.02 166.95,-20.72 158.6,-27.24 164.49,-31.02"/>
</g>
</g>
</svg>
