<?xml version="1.0" encoding="UTF-8" standalone="no"?>
<!DOCTYPE svg PUBLIC "-//W3C//DTD SVG 1.1//EN"
 "http://www.w3.org/Graphics/SVG/1.1/DTD/svg11.dtd">
<!-- Generated by graphviz version 7.1.0 (0)
 -->
<!-- Title: src/vector/vector.c Pages: 1 -->
<svg width="280pt" height="137pt"
 viewBox="0.00 0.00 280.00 137.00" xmlns="http://www.w3.org/2000/svg" xmlns:xlink="http://www.w3.org/1999/xlink">
<g id="graph0" class="graph" transform="scale(1 1) rotate(0) translate(4 133)">
<title>src/vector/vector.c</title>
<!-- Node1 -->
<g id="node1" class="node">
<title>Node1</title>
<g id="a_node1"><a xlink:title=" ">
<polygon fill="#999999" stroke="#666666" points="187,-129 89,-129 89,-110 187,-110 187,-129"/>
<text text-anchor="middle" x="138" y="-117" font-family="Helvetica,sans-Serif" font-size="10.00">src/vector/vector.c</text>
</a>
</g>
</g>
<!-- Node2 -->
<g id="node2" class="node">
<title>Node2</title>
<g id="a_node2"><a xlink:title=" ">
<polygon fill="#e0e0e0" stroke="#999999" points="52,-74 0,-74 0,-55 52,-55 52,-74"/>
<text text-anchor="middle" x="26" y="-62" font-family="Helvetica,sans-Serif" font-size="10.00">assert.h</text>
</a>
</g>
</g>
<!-- Node1&#45;&gt;Node2 -->
<g id="edge1" class="edge">
<title>Node1&#45;&gt;Node2</title>
<path fill="none" stroke="#63b8ff" d="M119,-109.51C101.44,-101.2 75.08,-88.73 54.91,-79.18"/>
<polygon fill="#63b8ff" stroke="#63b8ff" points="56.62,-76.12 46.09,-75.01 53.63,-82.45 56.62,-76.12"/>
</g>
<!-- Node3 -->
<g id="node3" class="node">
<title>Node3</title>
<g id="a_node3"><a xlink:href="memory_8h.html" target="_top" xlink:title=" ">
<polygon fill="white" stroke="#666666" points="167.5,-74 108.5,-74 108.5,-55 167.5,-55 167.5,-74"/>
<text text-anchor="middle" x="138" y="-62" font-family="Helvetica,sans-Serif" font-size="10.00">memory.h</text>
</a>
</g>
</g>
<!-- Node1&#45;&gt;Node3 -->
<g id="edge2" class="edge">
<title>Node1&#45;&gt;Node3</title>
<path fill="none" stroke="#63b8ff" d="M138,-109.75C138,-103.27 138,-94.16 138,-85.9"/>
<polygon fill="#63b8ff" stroke="#63b8ff" points="141.5,-85.96 138,-75.96 134.5,-85.96 141.5,-85.96"/>
</g>
<!-- Node4 -->
<g id="node4" class="node">
<title>Node4</title>
<g id="a_node4"><a xlink:title=" ">
<polygon fill="#e0e0e0" stroke="#999999" points="129,-19 77,-19 77,0 129,0 129,-19"/>
<text text-anchor="middle" x="103" y="-7" font-family="Helvetica,sans-Serif" font-size="10.00">stddef.h</text>
</a>
</g>
</g>
<!-- Node1&#45;&gt;Node4 -->
<g id="edge5" class="edge">
<title>Node1&#45;&gt;Node4</title>
<path fill="none" stroke="#63b8ff" d="M126.64,-109.67C117.22,-101.56 104.5,-88.61 99,-74 93.75,-60.05 95.15,-43.17 97.64,-30.32"/>
<polygon fill="#63b8ff" stroke="#63b8ff" points="100.96,-31.48 99.84,-20.94 94.15,-29.88 100.96,-31.48"/>
</g>
<!-- Node5 -->
<g id="node5" class="node">
<title>Node5</title>
<g id="a_node5"><a xlink:title=" ">
<polygon fill="#e0e0e0" stroke="#999999" points="208.5,-19 159.5,-19 159.5,0 208.5,0 208.5,-19"/>
<text text-anchor="middle" x="184" y="-7" font-family="Helvetica,sans-Serif" font-size="10.00">stdint.h</text>
</a>
</g>
</g>
<!-- Node1&#45;&gt;Node5 -->
<g id="edge6" class="edge">
<title>Node1&#45;&gt;Node5</title>
<path fill="none" stroke="#63b8ff" d="M148.96,-109.51C158.14,-101.3 170.71,-88.29 177,-74 183.03,-60.3 184.65,-43.39 184.83,-30.46"/>
<polygon fill="#63b8ff" stroke="#63b8ff" points="188.33,-30.59 184.67,-20.65 181.33,-30.71 188.33,-30.59"/>
</g>
<!-- Node6 -->
<g id="node6" class="node">
<title>Node6</title>
<g id="a_node6"><a xlink:title=" ">
<polygon fill="#e0e0e0" stroke="#999999" points="272,-74 224,-74 224,-55 272,-55 272,-74"/>
<text text-anchor="middle" x="248" y="-62" font-family="Helvetica,sans-Serif" font-size="10.00">stdlib.h</text>
</a>
</g>
</g>
<!-- Node1&#45;&gt;Node6 -->
<g id="edge7" class="edge">
<title>Node1&#45;&gt;Node6</title>
<path fill="none" stroke="#63b8ff" d="M156.66,-109.51C173.83,-101.24 199.55,-88.84 219.33,-79.31"/>
<polygon fill="#63b8ff" stroke="#63b8ff" points="220.76,-82.51 228.25,-75.01 217.72,-76.2 220.76,-82.51"/>
</g>
<!-- Node3&#45;&gt;Node4 -->
<g id="edge3" class="edge">
<title>Node3&#45;&gt;Node4</title>
<path fill="none" stroke="#63b8ff" d="M132.22,-54.75C127.59,-47.73 120.93,-37.64 115.13,-28.87"/>
<polygon fill="#63b8ff" stroke="#63b8ff" points="118.17,-27.12 109.74,-20.71 112.33,-30.98 118.17,-27.12"/>
</g>
<!-- Node3&#45;&gt;Node5 -->
<g id="edge4" class="edge">
<title>Node3&#45;&gt;Node5</title>
<path fill="none" stroke="#63b8ff" d="M145.6,-54.75C151.88,-47.5 161.01,-36.98 168.8,-28.02"/>
<polygon fill="#63b8ff" stroke="#63b8ff" points="171.34,-30.43 175.25,-20.59 166.05,-25.84 171.34,-30.43"/>
</g>
</g>
</svg>
